<svg xmlns="http://www.w3.org/2000/svg" viewBox="0 0 1760 1240" font-family="system-ui,-apple-system,'Segoe UI',Roboto,sans-serif">
<defs>
<filter id="sh" x="-20%" y="-20%" width="140%" height="150%"><feDropShadow dx="0" dy="3" stdDeviation="5" flood-color="#8a6a45" flood-opacity="0.16"/></filter>
<marker id="h57524A" viewBox="0 0 10 10" refX="8.5" refY="5" markerWidth="7" markerHeight="7" orient="auto-start-reverse"><path d="M0 0 L10 5 L0 10 z" fill="#57524A"/></marker>
<marker id="h7C5CFF" viewBox="0 0 10 10" refX="8.5" refY="5" markerWidth="7" markerHeight="7" orient="auto-start-reverse"><path d="M0 0 L10 5 L0 10 z" fill="#7C5CFF"/></marker>
<marker id="hC67A12" viewBox="0 0 10 10" refX="8.5" refY="5" markerWidth="7" markerHeight="7" orient="auto-start-reverse"><path d="M0 0 L10 5 L0 10 z" fill="#C67A12"/></marker>
<marker id="h2E9C6E" viewBox="0 0 10 10" refX="8.5" refY="5" markerWidth="7" markerHeight="7" orient="auto-start-reverse"><path d="M0 0 L10 5 L0 10 z" fill="#2E9C6E"/></marker>
<marker id="hEB4A26" viewBox="0 0 10 10" refX="8.5" refY="5" markerWidth="7" markerHeight="7" orient="auto-start-reverse"><path d="M0 0 L10 5 L0 10 z" fill="#EB4A26"/></marker>
</defs>
<rect width="1760" height="1240" fill="#F5F1E8"/>
<text x="48" y="52" font-size="30" fill="#211F1B" font-family="system-ui,-apple-system,'Segoe UI',Roboto,sans-serif" text-anchor="start" font-weight="700">Kredex — System Architecture</text>
<text x="50" y="80" font-size="14" fill="#6E6A61" font-family="system-ui,-apple-system,'Segoe UI',Roboto,sans-serif" text-anchor="start" font-weight="400">React SPA  →  Caddy / nginx  →  Express API  →  Agent Orchestrator  →  Qwen (Model Studio) + MongoDB.</text>
<text x="50" y="100" font-size="13" fill="#6E6A61" font-family="system-ui,-apple-system,'Segoe UI',Roboto,sans-serif" text-anchor="start" font-weight="400">The MemoryAgent adds a typed, vector long-term memory with scored + MMR retrieval that the agent reads before every reply and writes after every turn.</text>
<g filter="url(#sh)"><rect x="40" y="175" width="180" height="250" rx="14" fill="#FFFFFF" stroke="#E1D9C8"/></g>
<path d="M40 197 v-8 a14 14 0 0 1 14 -14 h152 a14 14 0 0 1 14 14 v8 z" fill="#EB4A26"/>
<text x="130.0" y="193" font-size="12.5" fill="#fff" font-family="system-ui,-apple-system,'Segoe UI',Roboto,sans-serif" text-anchor="middle" font-weight="600">Client · Browser</text>
<text x="54" y="219" font-size="11" fill="#6E6A61" font-family="ui-monospace,Menlo,Consolas,monospace" text-anchor="start" font-weight="400">React 19 + Vite SPA</text>
<text x="54" y="236" font-size="11" fill="#6E6A61" font-family="ui-monospace,Menlo,Consolas,monospace" text-anchor="start" font-weight="400">Chat (SSE stream)</text>
<text x="54" y="253" font-size="11" fill="#6E6A61" font-family="ui-monospace,Menlo,Consolas,monospace" text-anchor="start" font-weight="400">Dashboard · P&amp;L</text>
<text x="54" y="270" font-size="11" fill="#6E6A61" font-family="ui-monospace,Menlo,Consolas,monospace" text-anchor="start" font-weight="400">Memory Inspector</text>
<text x="54" y="287" font-size="11" fill="#6E6A61" font-family="ui-monospace,Menlo,Consolas,monospace" text-anchor="start" font-weight="400">Voice record / play</text>
<text x="54" y="304" font-size="11" fill="#6E6A61" font-family="ui-monospace,Menlo,Consolas,monospace" text-anchor="start" font-weight="400">JWT Bearer · dark UI</text>
<g filter="url(#sh)"><rect x="268" y="180" width="150" height="66" rx="14" fill="#FFFFFF" stroke="#E1D9C8"/></g>
<path d="M268 202 v-8 a14 14 0 0 1 14 -14 h122 a14 14 0 0 1 14 14 v8 z" fill="#6E6A61"/>
<text x="343.0" y="198" font-size="12.5" fill="#fff" font-family="system-ui,-apple-system,'Segoe UI',Roboto,sans-serif" text-anchor="middle" font-weight="600">Caddy</text>
<text x="282" y="224" font-size="11" fill="#6E6A61" font-family="ui-monospace,Menlo,Consolas,monospace" text-anchor="start" font-weight="400">TLS · Let's Encrypt</text>
<text x="282" y="241" font-size="11" fill="#6E6A61" font-family="ui-monospace,Menlo,Consolas,monospace" text-anchor="start" font-weight="400">:443</text>
<g filter="url(#sh)"><rect x="268" y="262" width="150" height="104" rx="14" fill="#FFFFFF" stroke="#E1D9C8"/></g>
<path d="M268 284 v-8 a14 14 0 0 1 14 -14 h122 a14 14 0 0 1 14 14 v8 z" fill="#6E6A61"/>
<text x="343.0" y="280" font-size="12.5" fill="#fff" font-family="system-ui,-apple-system,'Segoe UI',Roboto,sans-serif" text-anchor="middle" font-weight="600">nginx</text>
<text x="282" y="306" font-size="11" fill="#6E6A61" font-family="ui-monospace,Menlo,Consolas,monospace" text-anchor="start" font-weight="400">serves SPA build</text>
<text x="282" y="323" font-size="11" fill="#6E6A61" font-family="ui-monospace,Menlo,Consolas,monospace" text-anchor="start" font-weight="400">reverse-proxy /api</text>
<text x="282" y="340" font-size="11" fill="#6E6A61" font-family="ui-monospace,Menlo,Consolas,monospace" text-anchor="start" font-weight="400">gzip · caching</text>
<rect x="458" y="150" width="292" height="292" rx="18" fill="none" stroke="#EB4A26" stroke-width="1.4" stroke-dasharray="3 7" opacity="0.9"/>
<rect x="476" y="137" width="248.0" height="26" rx="13" fill="#EB4A26"/>
<text x="600.0" y="154" font-size="12.5" fill="#fff" font-family="system-ui,-apple-system,'Segoe UI',Roboto,sans-serif" text-anchor="middle" font-weight="600">API · Express (TypeScript ESM)</text>
<g filter="url(#sh)"><rect x="474" y="178" width="260" height="78" rx="14" fill="#FFFFFF" stroke="#E1D9C8"/></g>
<path d="M474 200 v-8 a14 14 0 0 1 14 -14 h232 a14 14 0 0 1 14 14 v8 z" fill="#EB4A26"/>
<text x="604.0" y="196" font-size="12.5" fill="#fff" font-family="system-ui,-apple-system,'Segoe UI',Roboto,sans-serif" text-anchor="middle" font-weight="600">Middleware</text>
<text x="488" y="222" font-size="11" fill="#6E6A61" font-family="ui-monospace,Menlo,Consolas,monospace" text-anchor="start" font-weight="400">JWT auth · CORS · JSON 2mb</text>
<text x="488" y="239" font-size="11" fill="#6E6A61" font-family="ui-monospace,Menlo,Consolas,monospace" text-anchor="start" font-weight="400">rate-limit: api 150/min</text>
<text x="488" y="256" font-size="11" fill="#6E6A61" font-family="ui-monospace,Menlo,Consolas,monospace" text-anchor="start" font-weight="400">ai routes 25/min</text>
<g filter="url(#sh)"><rect x="474" y="270" width="260" height="158" rx="14" fill="#FFFFFF" stroke="#E1D9C8"/></g>
<path d="M474 292 v-8 a14 14 0 0 1 14 -14 h232 a14 14 0 0 1 14 14 v8 z" fill="#EB4A26"/>
<text x="604.0" y="288" font-size="12.5" fill="#fff" font-family="system-ui,-apple-system,'Segoe UI',Roboto,sans-serif" text-anchor="middle" font-weight="600">Route handlers</text>
<text x="488" y="314" font-size="11" fill="#6E6A61" font-family="ui-monospace,Menlo,Consolas,monospace" text-anchor="start" font-weight="400">/auth   /chat (SSE)   /memory</text>
<text x="488" y="331" font-size="11" fill="#6E6A61" font-family="ui-monospace,Menlo,Consolas,monospace" text-anchor="start" font-weight="400">/dashboard  /invoices</text>
<text x="488" y="348" font-size="11" fill="#6E6A61" font-family="ui-monospace,Menlo,Consolas,monospace" text-anchor="start" font-weight="400">/reminders  /settings</text>
<text x="488" y="365" font-size="11" fill="#6E6A61" font-family="ui-monospace,Menlo,Consolas,monospace" text-anchor="start" font-weight="400">/receipt  /voice  /pnl</text>
<text x="488" y="382" font-size="11" fill="#6E6A61" font-family="ui-monospace,Menlo,Consolas,monospace" text-anchor="start" font-weight="400">/opportunities</text>
<g filter="url(#sh)"><rect x="820" y="165" width="384" height="214" rx="14" fill="#FFFFFF" stroke="#E1D9C8"/></g>
<path d="M820 187 v-8 a14 14 0 0 1 14 -14 h356 a14 14 0 0 1 14 14 v8 z" fill="#EB4A26"/>
<text x="1012.0" y="183" font-size="12.5" fill="#fff" font-family="system-ui,-apple-system,'Segoe UI',Roboto,sans-serif" text-anchor="middle" font-weight="600">Agent Orchestrator — POST /api/chat</text>
<text x="834" y="209" font-size="11" fill="#6E6A61" font-family="ui-monospace,Menlo,Consolas,monospace" text-anchor="start" font-weight="400">1 · classify() intent  (local, no LLM)</text>
<text x="834" y="226" font-size="11" fill="#6E6A61" font-family="ui-monospace,Menlo,Consolas,monospace" text-anchor="start" font-weight="400">2 · recall(msg, k=5) → inject memories</text>
<text x="834" y="243" font-size="11" fill="#6E6A61" font-family="ui-monospace,Menlo,Consolas,monospace" text-anchor="start" font-weight="400">3 · context: system + memories + history + msg</text>
<text x="834" y="260" font-size="11" fill="#6E6A61" font-family="ui-monospace,Menlo,Consolas,monospace" text-anchor="start" font-weight="400">4 · tool-loop ≤4 · qwen3.5-flash ⇄ tools</text>
<text x="834" y="277" font-size="11" fill="#6E6A61" font-family="ui-monospace,Menlo,Consolas,monospace" text-anchor="start" font-weight="400">5 · stream reply · SSE tokens</text>
<text x="834" y="294" font-size="11" fill="#6E6A61" font-family="ui-monospace,Menlo,Consolas,monospace" text-anchor="start" font-weight="400">6 · rememberFromTurn()  · async</text>
<rect x="1240" y="150" width="480" height="372" rx="18" fill="none" stroke="#C67A12" stroke-width="1.4" stroke-dasharray="3 7" opacity="0.9"/>
<rect x="1258" y="137" width="453.2" height="26" rx="13" fill="#C67A12"/>
<text x="1484.6" y="154" font-size="12.5" fill="#fff" font-family="system-ui,-apple-system,'Segoe UI',Roboto,sans-serif" text-anchor="middle" font-weight="600">Qwen Cloud · Model Studio (DashScope · OpenAI-compatible)</text>
<g filter="url(#sh)"><rect x="1262" y="182" width="436" height="62" rx="14" fill="#FFFFFF" stroke="#E1D9C8"/></g>
<path d="M1262 204 v-8 a14 14 0 0 1 14 -14 h408 a14 14 0 0 1 14 14 v8 z" fill="#C67A12"/>
<text x="1480.0" y="200" font-size="12.5" fill="#fff" font-family="system-ui,-apple-system,'Segoe UI',Roboto,sans-serif" text-anchor="middle" font-weight="600">qwen3.5-flash</text>
<text x="1276" y="226" font-size="11" fill="#6E6A61" font-family="ui-monospace,Menlo,Consolas,monospace" text-anchor="start" font-weight="400">agent loop · tool calls · memory extraction</text>
<g filter="url(#sh)"><rect x="1262" y="254" width="436" height="52" rx="14" fill="#FFFFFF" stroke="#E1D9C8"/></g>
<path d="M1262 276 v-8 a14 14 0 0 1 14 -14 h408 a14 14 0 0 1 14 14 v8 z" fill="#C67A12"/>
<text x="1480.0" y="272" font-size="12.5" fill="#fff" font-family="system-ui,-apple-system,'Segoe UI',Roboto,sans-serif" text-anchor="middle" font-weight="600">qwen3.7-max</text>
<text x="1276" y="298" font-size="11" fill="#6E6A61" font-family="ui-monospace,Menlo,Consolas,monospace" text-anchor="start" font-weight="400">deep reasoning · P&amp;L analysis · /api/pnl</text>
<g filter="url(#sh)"><rect x="1262" y="314" width="436" height="52" rx="14" fill="#FFFFFF" stroke="#E1D9C8"/></g>
<path d="M1262 336 v-8 a14 14 0 0 1 14 -14 h408 a14 14 0 0 1 14 14 v8 z" fill="#C67A12"/>
<text x="1480.0" y="332" font-size="12.5" fill="#fff" font-family="system-ui,-apple-system,'Segoe UI',Roboto,sans-serif" text-anchor="middle" font-weight="600">qwen-vl-max</text>
<text x="1276" y="358" font-size="11" fill="#6E6A61" font-family="ui-monospace,Menlo,Consolas,monospace" text-anchor="start" font-weight="400">receipt OCR → structured items · /api/receipt</text>
<g filter="url(#sh)"><rect x="1262" y="374" width="436" height="52" rx="14" fill="#FFFFFF" stroke="#E1D9C8"/></g>
<path d="M1262 396 v-8 a14 14 0 0 1 14 -14 h408 a14 14 0 0 1 14 14 v8 z" fill="#C67A12"/>
<text x="1480.0" y="392" font-size="12.5" fill="#fff" font-family="system-ui,-apple-system,'Segoe UI',Roboto,sans-serif" text-anchor="middle" font-weight="600">qwen3-asr-flash · qwen3-tts-flash</text>
<text x="1276" y="418" font-size="11" fill="#6E6A61" font-family="ui-monospace,Menlo,Consolas,monospace" text-anchor="start" font-weight="400">voice STT + TTS · /api/voice</text>
<g filter="url(#sh)"><rect x="1262" y="434" width="436" height="66" rx="14" fill="#FFFFFF" stroke="#E1D9C8"/></g>
<path d="M1262 456 v-8 a14 14 0 0 1 14 -14 h408 a14 14 0 0 1 14 14 v8 z" fill="#7C5CFF"/>
<text x="1480.0" y="452" font-size="12.5" fill="#fff" font-family="system-ui,-apple-system,'Segoe UI',Roboto,sans-serif" text-anchor="middle" font-weight="600">text-embedding-v4</text>
<text x="1276" y="478" font-size="11" fill="#6E6A61" font-family="ui-monospace,Menlo,Consolas,monospace" text-anchor="start" font-weight="400">1024-d embeddings · powers memory vectors</text>
<g filter="url(#sh)"><rect x="40" y="720" width="330" height="150" rx="14" fill="#FFFFFF" stroke="#E1D9C8"/></g>
<path d="M40 742 v-8 a14 14 0 0 1 14 -14 h302 a14 14 0 0 1 14 14 v8 z" fill="#2E9C6E"/>
<text x="205.0" y="738" font-size="12.5" fill="#fff" font-family="system-ui,-apple-system,'Segoe UI',Roboto,sans-serif" text-anchor="middle" font-weight="600">Agent tools → executeTool()</text>
<text x="54" y="764" font-size="11" fill="#6E6A61" font-family="ui-monospace,Menlo,Consolas,monospace" text-anchor="start" font-weight="400">log_stock · record_sale</text>
<text x="54" y="781" font-size="11" fill="#6E6A61" font-family="ui-monospace,Menlo,Consolas,monospace" text-anchor="start" font-weight="400">record_payment · record_expense</text>
<text x="54" y="798" font-size="11" fill="#6E6A61" font-family="ui-monospace,Menlo,Consolas,monospace" text-anchor="start" font-weight="400">create_invoice · set_reminder</text>
<text x="54" y="815" font-size="11" fill="#6E6A61" font-family="ui-monospace,Menlo,Consolas,monospace" text-anchor="start" font-weight="400">save_customer_phone</text>
<rect x="470" y="545" width="1250" height="362" rx="18" fill="none" stroke="#7C5CFF" stroke-width="1.4" stroke-dasharray="3 7" opacity="0.9"/>
<rect x="488" y="532" width="552.0" height="26" rx="13" fill="#7C5CFF"/>
<text x="764.0" y="549" font-size="12.5" fill="#fff" font-family="system-ui,-apple-system,'Segoe UI',Roboto,sans-serif" text-anchor="middle" font-weight="600">MemoryAgent · long-term memory engine  (server/src/services/memory.ts)</text>
<text x="492" y="592" font-size="12" fill="#7C5CFF" font-family="system-ui,-apple-system,'Segoe UI',Roboto,sans-serif" text-anchor="start" font-weight="700">WRITE · remember  (distil → dedup → store → forget)</text>
<g filter="url(#sh)"><rect x="492" y="606" width="168" height="82" rx="12" fill="#FFFFFF" stroke="#7C5CFF" stroke-width="1.6"/></g>
<rect x="492" y="606" width="5" height="82" rx="2.5" fill="#7C5CFF"/>
<text x="576.0" y="636" font-size="12.5" fill="#211F1B" font-family="system-ui,-apple-system,'Segoe UI',Roboto,sans-serif" text-anchor="middle" font-weight="700">rememberFromTurn()</text>
<text x="576.0" y="656" font-size="10" fill="#6E6A61" font-family="ui-monospace,Menlo,Consolas,monospace" text-anchor="middle" font-weight="400">distil the turn</text>
<g filter="url(#sh)"><rect x="676" y="606" width="176" height="82" rx="12" fill="#FFFFFF" stroke="#7C5CFF" stroke-width="1.6"/></g>
<rect x="676" y="606" width="5" height="82" rx="2.5" fill="#7C5CFF"/>
<text x="764.0" y="636" font-size="12.5" fill="#211F1B" font-family="system-ui,-apple-system,'Segoe UI',Roboto,sans-serif" text-anchor="middle" font-weight="700">extract</text>
<text x="764.0" y="656" font-size="10" fill="#6E6A61" font-family="ui-monospace,Menlo,Consolas,monospace" text-anchor="middle" font-weight="400">typed mems · qwen3.5-flash</text>
<path d="M660 647.0 L676 647.0" fill="none" stroke="#7C5CFF" stroke-width="1.9" marker-end="url(#h7C5CFF)"/>
<g filter="url(#sh)"><rect x="868" y="606" width="138" height="82" rx="12" fill="#FFFFFF" stroke="#7C5CFF" stroke-width="1.6"/></g>
<rect x="868" y="606" width="5" height="82" rx="2.5" fill="#7C5CFF"/>
<text x="937.0" y="636" font-size="12.5" fill="#211F1B" font-family="system-ui,-apple-system,'Segoe UI',Roboto,sans-serif" text-anchor="middle" font-weight="700">embed</text>
<text x="937.0" y="656" font-size="10" fill="#6E6A61" font-family="ui-monospace,Menlo,Consolas,monospace" text-anchor="middle" font-weight="400">text-embedding-v4</text>
<path d="M852 647.0 L868 647.0" fill="none" stroke="#7C5CFF" stroke-width="1.9" marker-end="url(#h7C5CFF)"/>
<g filter="url(#sh)"><rect x="1022" y="606" width="190" height="82" rx="12" fill="#FFFFFF" stroke="#7C5CFF" stroke-width="1.6"/></g>
<rect x="1022" y="606" width="5" height="82" rx="2.5" fill="#7C5CFF"/>
<text x="1117.0" y="636" font-size="12.5" fill="#211F1B" font-family="system-ui,-apple-system,'Segoe UI',Roboto,sans-serif" text-anchor="middle" font-weight="700">dedup / merge</text>
<text x="1117.0" y="656" font-size="10" fill="#6E6A61" font-family="ui-monospace,Menlo,Consolas,monospace" text-anchor="middle" font-weight="400">cosine ≥ 0.82 → reinforce</text>
<path d="M1006 647.0 L1022 647.0" fill="none" stroke="#7C5CFF" stroke-width="1.9" marker-end="url(#h7C5CFF)"/>
<g filter="url(#sh)"><rect x="1228" y="606" width="104" height="82" rx="12" fill="#FFFFFF" stroke="#7C5CFF" stroke-width="1.6"/></g>
<rect x="1228" y="606" width="5" height="82" rx="2.5" fill="#7C5CFF"/>
<text x="1280.0" y="636" font-size="12.5" fill="#211F1B" font-family="system-ui,-apple-system,'Segoe UI',Roboto,sans-serif" text-anchor="middle" font-weight="700">store</text>
<text x="1280.0" y="656" font-size="10" fill="#6E6A61" font-family="ui-monospace,Menlo,Consolas,monospace" text-anchor="middle" font-weight="400">→ memories</text>
<path d="M1212 647.0 L1228 647.0" fill="none" stroke="#7C5CFF" stroke-width="1.9" marker-end="url(#h7C5CFF)"/>
<g filter="url(#sh)"><rect x="1348" y="606" width="196" height="82" rx="12" fill="#FFFFFF" stroke="#7C5CFF" stroke-width="1.6"/></g>
<rect x="1348" y="606" width="5" height="82" rx="2.5" fill="#7C5CFF"/>
<text x="1446.0" y="636" font-size="12.5" fill="#211F1B" font-family="system-ui,-apple-system,'Segoe UI',Roboto,sans-serif" text-anchor="middle" font-weight="700">forget</text>
<text x="1446.0" y="656" font-size="10" fill="#6E6A61" font-family="ui-monospace,Menlo,Consolas,monospace" text-anchor="middle" font-weight="400">cap 600 · evict lowest</text>
<path d="M1332 647.0 L1348 647.0" fill="none" stroke="#7C5CFF" stroke-width="1.9" marker-end="url(#h7C5CFF)"/>
<text x="492" y="726" font-size="12" fill="#7C5CFF" font-family="system-ui,-apple-system,'Segoe UI',Roboto,sans-serif" text-anchor="start" font-weight="700">READ · recall  (embed → score → gate → MMR → reinforce)</text>
<g filter="url(#sh)"><rect x="492" y="740" width="150" height="82" rx="12" fill="#FFFFFF" stroke="#7C5CFF" stroke-width="1.6"/></g>
<rect x="492" y="740" width="5" height="82" rx="2.5" fill="#7C5CFF"/>
<text x="567.0" y="770" font-size="12.5" fill="#211F1B" font-family="system-ui,-apple-system,'Segoe UI',Roboto,sans-serif" text-anchor="middle" font-weight="700">embed query</text>
<text x="567.0" y="790" font-size="10" fill="#6E6A61" font-family="ui-monospace,Menlo,Consolas,monospace" text-anchor="middle" font-weight="400">text-embedding-v4</text>
<g filter="url(#sh)"><rect x="662" y="740" width="158" height="82" rx="12" fill="#FFFFFF" stroke="#7C5CFF" stroke-width="1.6"/></g>
<rect x="662" y="740" width="5" height="82" rx="2.5" fill="#7C5CFF"/>
<text x="741.0" y="770" font-size="12.5" fill="#211F1B" font-family="system-ui,-apple-system,'Segoe UI',Roboto,sans-serif" text-anchor="middle" font-weight="700">fetch</text>
<text x="741.0" y="790" font-size="10" fill="#6E6A61" font-family="ui-monospace,Menlo,Consolas,monospace" text-anchor="middle" font-weight="400">≤400 active · pre-sorted</text>
<path d="M642 781.0 L662 781.0" fill="none" stroke="#7C5CFF" stroke-width="1.9" marker-end="url(#h7C5CFF)"/>
<g filter="url(#sh)"><rect x="840" y="740" width="196" height="82" rx="12" fill="#FFFFFF" stroke="#7C5CFF" stroke-width="1.6"/></g>
<rect x="840" y="740" width="5" height="82" rx="2.5" fill="#7C5CFF"/>
<text x="938.0" y="770" font-size="12.5" fill="#211F1B" font-family="system-ui,-apple-system,'Segoe UI',Roboto,sans-serif" text-anchor="middle" font-weight="700">score</text>
<text x="938.0" y="790" font-size="10" fill="#6E6A61" font-family="ui-monospace,Menlo,Consolas,monospace" text-anchor="middle" font-weight="400">cosine × importance × recency</text>
<path d="M820 781.0 L840 781.0" fill="none" stroke="#7C5CFF" stroke-width="1.9" marker-end="url(#h7C5CFF)"/>
<g filter="url(#sh)"><rect x="1056" y="740" width="112" height="82" rx="12" fill="#FFFFFF" stroke="#7C5CFF" stroke-width="1.6"/></g>
<rect x="1056" y="740" width="5" height="82" rx="2.5" fill="#7C5CFF"/>
<text x="1112.0" y="770" font-size="12.5" fill="#211F1B" font-family="system-ui,-apple-system,'Segoe UI',Roboto,sans-serif" text-anchor="middle" font-weight="700">gate</text>
<text x="1112.0" y="790" font-size="10" fill="#6E6A61" font-family="ui-monospace,Menlo,Consolas,monospace" text-anchor="middle" font-weight="400">sim ≥ 0.36</text>
<path d="M1036 781.0 L1056 781.0" fill="none" stroke="#7C5CFF" stroke-width="1.9" marker-end="url(#h7C5CFF)"/>
<g filter="url(#sh)"><rect x="1188" y="740" width="168" height="82" rx="12" fill="#FFFFFF" stroke="#7C5CFF" stroke-width="1.6"/></g>
<rect x="1188" y="740" width="5" height="82" rx="2.5" fill="#7C5CFF"/>
<text x="1272.0" y="770" font-size="12.5" fill="#211F1B" font-family="system-ui,-apple-system,'Segoe UI',Roboto,sans-serif" text-anchor="middle" font-weight="700">MMR select</text>
<text x="1272.0" y="790" font-size="10" fill="#6E6A61" font-family="ui-monospace,Menlo,Consolas,monospace" text-anchor="middle" font-weight="400">λ=0.72 · ≤720 chars · k≤6</text>
<path d="M1168 781.0 L1188 781.0" fill="none" stroke="#7C5CFF" stroke-width="1.9" marker-end="url(#h7C5CFF)"/>
<g filter="url(#sh)"><rect x="1376" y="740" width="182" height="82" rx="12" fill="#FFFFFF" stroke="#7C5CFF" stroke-width="1.6"/></g>
<rect x="1376" y="740" width="5" height="82" rx="2.5" fill="#7C5CFF"/>
<text x="1467.0" y="770" font-size="12.5" fill="#211F1B" font-family="system-ui,-apple-system,'Segoe UI',Roboto,sans-serif" text-anchor="middle" font-weight="700">reinforce</text>
<text x="1467.0" y="790" font-size="10" fill="#6E6A61" font-family="ui-monospace,Menlo,Consolas,monospace" text-anchor="middle" font-weight="400">importance↑ · recency refresh</text>
<path d="M1356 781.0 L1376 781.0" fill="none" stroke="#7C5CFF" stroke-width="1.9" marker-end="url(#h7C5CFF)"/>
<g filter="url(#sh)">
<path d="M590 990 v110 a280.0 20 0 0 0 560 0 v-110" fill="#FFFFFF" stroke="#E1D9C8"/>
<ellipse cx="870.0" cy="990" rx="280.0" ry="20" fill="#FFFFFF" stroke="#E1D9C8"/>
</g>
<ellipse cx="870.0" cy="990" rx="280.0" ry="20" fill="none" stroke="#2E9C6E" stroke-width="1.6"/>
<text x="870.0" y="995" font-size="13" fill="#211F1B" font-family="system-ui,-apple-system,'Segoe UI',Roboto,sans-serif" text-anchor="middle" font-weight="700">MongoDB · Mongoose</text>
<text x="870" y="1024" font-size="11" fill="#6E6A61" font-family="ui-monospace,Menlo,Consolas,monospace" text-anchor="middle" font-weight="400">users · shops · customers</text>
<text x="870" y="1042" font-size="11" fill="#6E6A61" font-family="ui-monospace,Menlo,Consolas,monospace" text-anchor="middle" font-weight="400">inventoryitems · debts · transactions</text>
<text x="870" y="1060" font-size="11" fill="#6E6A61" font-family="ui-monospace,Menlo,Consolas,monospace" text-anchor="middle" font-weight="400">invoices · reminders · chatmessages</text>
<text x="870" y="1080" font-size="11" fill="#7C5CFF" font-family="ui-monospace,Menlo,Consolas,monospace" text-anchor="middle" font-weight="700">memories  —  vector + importance / recency / accessCount</text>
<path d="M220 300 L268 300" fill="none" stroke="#57524A" stroke-width="1.9" marker-end="url(#h57524A)" marker-start="url(#h57524A)"/>
<rect x="203.35" y="282.0" width="81.3" height="17" rx="6" fill="#F5F1E8" opacity="0.95"/>
<text x="244.0" y="295.0" font-size="10.5" fill="#57524A" font-family="ui-monospace,Menlo,Consolas,monospace" text-anchor="middle" font-weight="600">HTTPS · JWT</text>
<path d="M418 314 L458 320" fill="none" stroke="#57524A" stroke-width="1.9" marker-end="url(#h57524A)" marker-start="url(#h57524A)"/>
<rect x="419.4" y="299.0" width="37.2" height="17" rx="6" fill="#F5F1E8" opacity="0.95"/>
<text x="438.0" y="312.0" font-size="10.5" fill="#57524A" font-family="ui-monospace,Menlo,Consolas,monospace" text-anchor="middle" font-weight="600">/api</text>
<path d="M750 300 L820 300" fill="none" stroke="#57524A" stroke-width="1.9" marker-end="url(#h57524A)" marker-start="url(#h57524A)"/>
<rect x="747.5" y="276" width="75.0" height="17" rx="6" fill="#F5F1E8" opacity="0.95"/>
<text x="785" y="289" font-size="10.5" fill="#57524A" font-family="ui-monospace,Menlo,Consolas,monospace" text-anchor="middle" font-weight="600">POST /chat</text>
<path d="M1204 214 L1262 213" fill="none" stroke="#C67A12" stroke-width="1.9" marker-end="url(#hC67A12)" marker-start="url(#hC67A12)"/>
<rect x="1170.3" y="188" width="125.39999999999999" height="17" rx="6" fill="#F5F1E8" opacity="0.95"/>
<text x="1233" y="201" font-size="10.5" fill="#C67A12" font-family="ui-monospace,Menlo,Consolas,monospace" text-anchor="middle" font-weight="600">tool-loop + stream</text>
<path d="M895 379 L620 606" fill="none" stroke="#7C5CFF" stroke-width="1.9" marker-end="url(#h7C5CFF)"/>
<rect x="612.1" y="508" width="175.79999999999998" height="17" rx="6" fill="#F5F1E8" opacity="0.95"/>
<text x="700" y="521" font-size="10.5" fill="#7C5CFF" font-family="ui-monospace,Menlo,Consolas,monospace" text-anchor="middle" font-weight="600">rememberFromTurn() · async</text>
<path d="M1030 379 L905 545" fill="none" stroke="#7C5CFF" stroke-width="1.9" marker-end="url(#h7C5CFF)" marker-start="url(#h7C5CFF)"/>
<rect x="1017.85" y="488" width="144.29999999999998" height="17" rx="6" fill="#F5F1E8" opacity="0.95"/>
<text x="1090" y="501" font-size="10.5" fill="#7C5CFF" font-family="ui-monospace,Menlo,Consolas,monospace" text-anchor="middle" font-weight="600">recall(msg,5) → top-k</text>
<path d="M1560 545 L1560 500" fill="none" stroke="#7C5CFF" stroke-width="1.9" marker-end="url(#h7C5CFF)" marker-start="url(#h7C5CFF)"/>
<rect x="1484.7" y="518" width="150.6" height="17" rx="6" fill="#F5F1E8" opacity="0.95"/>
<text x="1560" y="531" font-size="10.5" fill="#7C5CFF" font-family="ui-monospace,Menlo,Consolas,monospace" text-anchor="middle" font-weight="600">embed · extract (Qwen)</text>
<path d="M845 379 L845 452 L250 452 L250 720" fill="none" stroke="#2E9C6E" stroke-width="1.9" marker-end="url(#h2E9C6E)"/>
<rect x="383.05" y="432" width="93.89999999999999" height="17" rx="6" fill="#F5F1E8" opacity="0.95"/>
<text x="430" y="445" font-size="10.5" fill="#2E9C6E" font-family="ui-monospace,Menlo,Consolas,monospace" text-anchor="middle" font-weight="600">executeTool()</text>
<path d="M230 870 L600 1005" fill="none" stroke="#2E9C6E" stroke-width="1.9" marker-end="url(#h2E9C6E)"/>
<rect x="396.4" y="919.5" width="37.2" height="17" rx="6" fill="#F5F1E8" opacity="0.95"/>
<text x="415.0" y="932.5" font-size="10.5" fill="#2E9C6E" font-family="ui-monospace,Menlo,Consolas,monospace" text-anchor="middle" font-weight="600">CRUD</text>
<path d="M900 907 L900 970" fill="none" stroke="#2E9C6E" stroke-width="1.9" marker-end="url(#h2E9C6E)" marker-start="url(#h2E9C6E)"/>
<rect x="936.2" y="933" width="87.6" height="17" rx="6" fill="#F5F1E8" opacity="0.95"/>
<text x="980" y="946" font-size="10.5" fill="#2E9C6E" font-family="ui-monospace,Menlo,Consolas,monospace" text-anchor="middle" font-weight="600">read / write</text>
<rect x="1300" y="980" width="410" height="150" rx="14" fill="#FFFFFF" stroke="#E1D9C8"/>
<text x="1318" y="1008" font-size="13" fill="#211F1B" font-family="system-ui,-apple-system,'Segoe UI',Roboto,sans-serif" text-anchor="start" font-weight="700">Legend</text>
<rect x="1318" y="1022" width="26" height="16" rx="5" fill="#FFFFFF" stroke="#E1D9C8"/>
<text x="1352" y="1035" font-size="11" fill="#6E6A61" font-family="system-ui,-apple-system,'Segoe UI',Roboto,sans-serif" text-anchor="start" font-weight="400">service / handler</text>
<ellipse cx="1331" cy="1058" rx="13" ry="7" fill="#FFFFFF" stroke="#2E9C6E"/>
<text x="1352" y="1061" font-size="11" fill="#6E6A61" font-family="system-ui,-apple-system,'Segoe UI',Roboto,sans-serif" text-anchor="start" font-weight="400">datastore (MongoDB)</text>
<rect x="1318" y="1074" width="26" height="16" rx="5" fill="none" stroke="#7C5CFF" stroke-dasharray="3 4"/>
<text x="1352" y="1087" font-size="11" fill="#6E6A61" font-family="system-ui,-apple-system,'Segoe UI',Roboto,sans-serif" text-anchor="start" font-weight="400">subsystem boundary</text>
<path d="M1520 1030 h30" stroke="#7C5CFF" stroke-width="2" marker-end="url(#h7C5CFF)"/>
<text x="1558" y="1034" font-size="11" fill="#6E6A61" font-family="system-ui,-apple-system,'Segoe UI',Roboto,sans-serif" text-anchor="start" font-weight="400">memory path</text>
<path d="M1520 1058 h30" stroke="#C67A12" stroke-width="2" marker-end="url(#hC67A12)"/>
<text x="1558" y="1062" font-size="11" fill="#6E6A61" font-family="system-ui,-apple-system,'Segoe UI',Roboto,sans-serif" text-anchor="start" font-weight="400">Qwen model call</text>
<path d="M1520 1086 h30" stroke="#2E9C6E" stroke-width="2" marker-end="url(#h2E9C6E)"/>
<text x="1558" y="1090" font-size="11" fill="#6E6A61" font-family="system-ui,-apple-system,'Segoe UI',Roboto,sans-serif" text-anchor="start" font-weight="400">data read / write</text>
</svg>