<svg xmlns="http://www.w3.org/2000/svg" viewBox="0 0 1760 1120" font-family="system-ui,-apple-system,'Segoe UI',Roboto,sans-serif">
<defs>
<filter id="sh" x="-20%" y="-20%" width="140%" height="150%"><feDropShadow dx="0" dy="3" stdDeviation="5" flood-color="#8a6a45" flood-opacity="0.16"/></filter>
<marker id="h57524A" viewBox="0 0 10 10" refX="8.5" refY="5" markerWidth="7" markerHeight="7" orient="auto-start-reverse"><path d="M0 0 L10 5 L0 10 z" fill="#57524A"/></marker>
<marker id="h7C5CFF" viewBox="0 0 10 10" refX="8.5" refY="5" markerWidth="7" markerHeight="7" orient="auto-start-reverse"><path d="M0 0 L10 5 L0 10 z" fill="#7C5CFF"/></marker>
<marker id="hC67A12" viewBox="0 0 10 10" refX="8.5" refY="5" markerWidth="7" markerHeight="7" orient="auto-start-reverse"><path d="M0 0 L10 5 L0 10 z" fill="#C67A12"/></marker>
<marker id="h2E9C6E" viewBox="0 0 10 10" refX="8.5" refY="5" markerWidth="7" markerHeight="7" orient="auto-start-reverse"><path d="M0 0 L10 5 L0 10 z" fill="#2E9C6E"/></marker>
<marker id="hEB4A26" viewBox="0 0 10 10" refX="8.5" refY="5" markerWidth="7" markerHeight="7" orient="auto-start-reverse"><path d="M0 0 L10 5 L0 10 z" fill="#EB4A26"/></marker>
<marker id="h1E7E8C" viewBox="0 0 10 10" refX="8.5" refY="5" markerWidth="7" markerHeight="7" orient="auto-start-reverse"><path d="M0 0 L10 5 L0 10 z" fill="#1E7E8C"/></marker>
</defs>
<rect width="1760" height="1120" fill="#F5F1E8"/>
<text x="48" y="52" font-size="30" fill="#211F1B" font-family="system-ui,-apple-system,'Segoe UI',Roboto,sans-serif" text-anchor="start" font-weight="700">Kredex — System Architecture</text>
<text x="50" y="80" font-size="14" fill="#6E6A61" font-family="system-ui,-apple-system,'Segoe UI',Roboto,sans-serif" text-anchor="start" font-weight="400">React SPA  →  Caddy / nginx  →  Express API  →  Agent Orchestrator  →  Qwen (Model Studio) + MongoDB.</text>
<text x="50" y="100" font-size="13" fill="#6E6A61" font-family="system-ui,-apple-system,'Segoe UI',Roboto,sans-serif" text-anchor="start" font-weight="400">Two-tier long-term memory — a canonical-key TRIE for exact, overwriteable facts + a vector store for fuzzy recall — shop-scoped and shared across every chat session.</text>
<g filter="url(#sh)"><rect x="40" y="175" width="180" height="250" rx="14" fill="#FFFFFF" stroke="#E1D9C8"/></g>
<path d="M40 197 v-8 a14 14 0 0 1 14 -14 h152 a14 14 0 0 1 14 14 v8 z" fill="#EB4A26"/>
<text x="130.0" y="193" font-size="12.5" fill="#fff" font-family="system-ui,-apple-system,'Segoe UI',Roboto,sans-serif" text-anchor="middle" font-weight="600">Client · Browser</text>
<text x="54" y="219" font-size="11" fill="#6E6A61" font-family="ui-monospace,Menlo,Consolas,monospace" text-anchor="start" font-weight="400">React 19 + Vite SPA</text>
<text x="54" y="236" font-size="11" fill="#6E6A61" font-family="ui-monospace,Menlo,Consolas,monospace" text-anchor="start" font-weight="400">Chat · sessions (SSE)</text>
<text x="54" y="253" font-size="11" fill="#6E6A61" font-family="ui-monospace,Menlo,Consolas,monospace" text-anchor="start" font-weight="400">Dashboard · P&amp;L</text>
<text x="54" y="270" font-size="11" fill="#6E6A61" font-family="ui-monospace,Menlo,Consolas,monospace" text-anchor="start" font-weight="400">Memory / knowledge tab</text>
<text x="54" y="287" font-size="11" fill="#6E6A61" font-family="ui-monospace,Menlo,Consolas,monospace" text-anchor="start" font-weight="400">Voice record / play</text>
<text x="54" y="304" font-size="11" fill="#6E6A61" font-family="ui-monospace,Menlo,Consolas,monospace" text-anchor="start" font-weight="400">JWT Bearer · dark UI</text>
<g filter="url(#sh)"><rect x="268" y="180" width="150" height="66" rx="14" fill="#FFFFFF" stroke="#E1D9C8"/></g>
<path d="M268 202 v-8 a14 14 0 0 1 14 -14 h122 a14 14 0 0 1 14 14 v8 z" fill="#6E6A61"/>
<text x="343.0" y="198" font-size="12.5" fill="#fff" font-family="system-ui,-apple-system,'Segoe UI',Roboto,sans-serif" text-anchor="middle" font-weight="600">Caddy</text>
<text x="282" y="224" font-size="11" fill="#6E6A61" font-family="ui-monospace,Menlo,Consolas,monospace" text-anchor="start" font-weight="400">TLS · Let's Encrypt</text>
<text x="282" y="241" font-size="11" fill="#6E6A61" font-family="ui-monospace,Menlo,Consolas,monospace" text-anchor="start" font-weight="400">:443</text>
<g filter="url(#sh)"><rect x="268" y="262" width="150" height="104" rx="14" fill="#FFFFFF" stroke="#E1D9C8"/></g>
<path d="M268 284 v-8 a14 14 0 0 1 14 -14 h122 a14 14 0 0 1 14 14 v8 z" fill="#6E6A61"/>
<text x="343.0" y="280" font-size="12.5" fill="#fff" font-family="system-ui,-apple-system,'Segoe UI',Roboto,sans-serif" text-anchor="middle" font-weight="600">nginx</text>
<text x="282" y="306" font-size="11" fill="#6E6A61" font-family="ui-monospace,Menlo,Consolas,monospace" text-anchor="start" font-weight="400">serves SPA build</text>
<text x="282" y="323" font-size="11" fill="#6E6A61" font-family="ui-monospace,Menlo,Consolas,monospace" text-anchor="start" font-weight="400">reverse-proxy /api</text>
<text x="282" y="340" font-size="11" fill="#6E6A61" font-family="ui-monospace,Menlo,Consolas,monospace" text-anchor="start" font-weight="400">gzip · caching</text>
<rect x="458" y="150" width="292" height="292" rx="18" fill="none" stroke="#EB4A26" stroke-width="1.4" stroke-dasharray="3 7" opacity="0.9"/>
<rect x="476" y="137" width="248.0" height="26" rx="13" fill="#EB4A26"/>
<text x="600.0" y="154" font-size="12.5" fill="#fff" font-family="system-ui,-apple-system,'Segoe UI',Roboto,sans-serif" text-anchor="middle" font-weight="600">API · Express (TypeScript ESM)</text>
<g filter="url(#sh)"><rect x="474" y="178" width="260" height="78" rx="14" fill="#FFFFFF" stroke="#E1D9C8"/></g>
<path d="M474 200 v-8 a14 14 0 0 1 14 -14 h232 a14 14 0 0 1 14 14 v8 z" fill="#EB4A26"/>
<text x="604.0" y="196" font-size="12.5" fill="#fff" font-family="system-ui,-apple-system,'Segoe UI',Roboto,sans-serif" text-anchor="middle" font-weight="600">Middleware</text>
<text x="488" y="222" font-size="11" fill="#6E6A61" font-family="ui-monospace,Menlo,Consolas,monospace" text-anchor="start" font-weight="400">JWT auth · CORS · JSON 2mb</text>
<text x="488" y="239" font-size="11" fill="#6E6A61" font-family="ui-monospace,Menlo,Consolas,monospace" text-anchor="start" font-weight="400">rate-limit: api 150/min</text>
<text x="488" y="256" font-size="11" fill="#6E6A61" font-family="ui-monospace,Menlo,Consolas,monospace" text-anchor="start" font-weight="400">ai routes 25/min</text>
<g filter="url(#sh)"><rect x="474" y="270" width="260" height="158" rx="14" fill="#FFFFFF" stroke="#E1D9C8"/></g>
<path d="M474 292 v-8 a14 14 0 0 1 14 -14 h232 a14 14 0 0 1 14 14 v8 z" fill="#EB4A26"/>
<text x="604.0" y="288" font-size="12.5" fill="#fff" font-family="system-ui,-apple-system,'Segoe UI',Roboto,sans-serif" text-anchor="middle" font-weight="600">Route handlers</text>
<text x="488" y="314" font-size="11" fill="#6E6A61" font-family="ui-monospace,Menlo,Consolas,monospace" text-anchor="start" font-weight="400">/auth   /chat (+ sessions)</text>
<text x="488" y="331" font-size="11" fill="#6E6A61" font-family="ui-monospace,Menlo,Consolas,monospace" text-anchor="start" font-weight="400">/memory   /dashboard</text>
<text x="488" y="348" font-size="11" fill="#6E6A61" font-family="ui-monospace,Menlo,Consolas,monospace" text-anchor="start" font-weight="400">/invoices  /reminders</text>
<text x="488" y="365" font-size="11" fill="#6E6A61" font-family="ui-monospace,Menlo,Consolas,monospace" text-anchor="start" font-weight="400">/receipt  /voice  /pnl</text>
<text x="488" y="382" font-size="11" fill="#6E6A61" font-family="ui-monospace,Menlo,Consolas,monospace" text-anchor="start" font-weight="400">/settings  /opportunities</text>
<g filter="url(#sh)"><rect x="820" y="165" width="384" height="214" rx="14" fill="#FFFFFF" stroke="#E1D9C8"/></g>
<path d="M820 187 v-8 a14 14 0 0 1 14 -14 h356 a14 14 0 0 1 14 14 v8 z" fill="#EB4A26"/>
<text x="1012.0" y="183" font-size="12.5" fill="#fff" font-family="system-ui,-apple-system,'Segoe UI',Roboto,sans-serif" text-anchor="middle" font-weight="600">Agent Orchestrator — POST /api/chat</text>
<text x="834" y="209" font-size="11" fill="#6E6A61" font-family="ui-monospace,Menlo,Consolas,monospace" text-anchor="start" font-weight="400">1 · classify() intent  (local, no LLM)</text>
<text x="834" y="226" font-size="11" fill="#6E6A61" font-family="ui-monospace,Menlo,Consolas,monospace" text-anchor="start" font-weight="400">2 · hybrid recall → facts (trie) + memories</text>
<text x="834" y="243" font-size="11" fill="#6E6A61" font-family="ui-monospace,Menlo,Consolas,monospace" text-anchor="start" font-weight="400">3 · context: system + facts + memories + msg</text>
<text x="834" y="260" font-size="11" fill="#6E6A61" font-family="ui-monospace,Menlo,Consolas,monospace" text-anchor="start" font-weight="400">4 · tool-loop ≤4 · qwen3.5-flash ⇄ tools</text>
<text x="834" y="277" font-size="11" fill="#6E6A61" font-family="ui-monospace,Menlo,Consolas,monospace" text-anchor="start" font-weight="400">5 · stream reply · SSE tokens</text>
<text x="834" y="294" font-size="11" fill="#6E6A61" font-family="ui-monospace,Menlo,Consolas,monospace" text-anchor="start" font-weight="400">6 · remember: facts + memories · async</text>
<rect x="1240" y="150" width="480" height="372" rx="18" fill="none" stroke="#C67A12" stroke-width="1.4" stroke-dasharray="3 7" opacity="0.9"/>
<rect x="1258" y="137" width="453.2" height="26" rx="13" fill="#C67A12"/>
<text x="1484.6" y="154" font-size="12.5" fill="#fff" font-family="system-ui,-apple-system,'Segoe UI',Roboto,sans-serif" text-anchor="middle" font-weight="600">Qwen Cloud · Model Studio (DashScope · OpenAI-compatible)</text>
<g filter="url(#sh)"><rect x="1262" y="182" width="436" height="62" rx="14" fill="#FFFFFF" stroke="#E1D9C8"/></g>
<path d="M1262 204 v-8 a14 14 0 0 1 14 -14 h408 a14 14 0 0 1 14 14 v8 z" fill="#C67A12"/>
<text x="1480.0" y="200" font-size="12.5" fill="#fff" font-family="system-ui,-apple-system,'Segoe UI',Roboto,sans-serif" text-anchor="middle" font-weight="600">qwen3.5-flash</text>
<text x="1276" y="226" font-size="11" fill="#6E6A61" font-family="ui-monospace,Menlo,Consolas,monospace" text-anchor="start" font-weight="400">agent loop · tools · extraction · canonicalization</text>
<g filter="url(#sh)"><rect x="1262" y="254" width="436" height="52" rx="14" fill="#FFFFFF" stroke="#E1D9C8"/></g>
<path d="M1262 276 v-8 a14 14 0 0 1 14 -14 h408 a14 14 0 0 1 14 14 v8 z" fill="#C67A12"/>
<text x="1480.0" y="272" font-size="12.5" fill="#fff" font-family="system-ui,-apple-system,'Segoe UI',Roboto,sans-serif" text-anchor="middle" font-weight="600">qwen3.7-max</text>
<text x="1276" y="298" font-size="11" fill="#6E6A61" font-family="ui-monospace,Menlo,Consolas,monospace" text-anchor="start" font-weight="400">deep reasoning · P&amp;L analysis · /api/pnl</text>
<g filter="url(#sh)"><rect x="1262" y="314" width="436" height="52" rx="14" fill="#FFFFFF" stroke="#E1D9C8"/></g>
<path d="M1262 336 v-8 a14 14 0 0 1 14 -14 h408 a14 14 0 0 1 14 14 v8 z" fill="#C67A12"/>
<text x="1480.0" y="332" font-size="12.5" fill="#fff" font-family="system-ui,-apple-system,'Segoe UI',Roboto,sans-serif" text-anchor="middle" font-weight="600">qwen-vl-max</text>
<text x="1276" y="358" font-size="11" fill="#6E6A61" font-family="ui-monospace,Menlo,Consolas,monospace" text-anchor="start" font-weight="400">receipt OCR → structured items · /api/receipt</text>
<g filter="url(#sh)"><rect x="1262" y="374" width="436" height="52" rx="14" fill="#FFFFFF" stroke="#E1D9C8"/></g>
<path d="M1262 396 v-8 a14 14 0 0 1 14 -14 h408 a14 14 0 0 1 14 14 v8 z" fill="#C67A12"/>
<text x="1480.0" y="392" font-size="12.5" fill="#fff" font-family="system-ui,-apple-system,'Segoe UI',Roboto,sans-serif" text-anchor="middle" font-weight="600">qwen3-asr-flash · qwen3-tts-flash</text>
<text x="1276" y="418" font-size="11" fill="#6E6A61" font-family="ui-monospace,Menlo,Consolas,monospace" text-anchor="start" font-weight="400">voice STT + TTS · /api/voice</text>
<g filter="url(#sh)"><rect x="1262" y="434" width="436" height="66" rx="14" fill="#FFFFFF" stroke="#E1D9C8"/></g>
<path d="M1262 456 v-8 a14 14 0 0 1 14 -14 h408 a14 14 0 0 1 14 14 v8 z" fill="#7C5CFF"/>
<text x="1480.0" y="452" font-size="12.5" fill="#fff" font-family="system-ui,-apple-system,'Segoe UI',Roboto,sans-serif" text-anchor="middle" font-weight="600">text-embedding-v4</text>
<text x="1276" y="478" font-size="11" fill="#6E6A61" font-family="ui-monospace,Menlo,Consolas,monospace" text-anchor="start" font-weight="400">1024-d embeddings · powers the vector tier</text>
<g filter="url(#sh)"><rect x="40" y="720" width="330" height="150" rx="14" fill="#FFFFFF" stroke="#E1D9C8"/></g>
<path d="M40 742 v-8 a14 14 0 0 1 14 -14 h302 a14 14 0 0 1 14 14 v8 z" fill="#2E9C6E"/>
<text x="205.0" y="738" font-size="12.5" fill="#fff" font-family="system-ui,-apple-system,'Segoe UI',Roboto,sans-serif" text-anchor="middle" font-weight="600">Agent tools → executeTool()</text>
<text x="54" y="764" font-size="11" fill="#6E6A61" font-family="ui-monospace,Menlo,Consolas,monospace" text-anchor="start" font-weight="400">log_stock · record_sale</text>
<text x="54" y="781" font-size="11" fill="#6E6A61" font-family="ui-monospace,Menlo,Consolas,monospace" text-anchor="start" font-weight="400">record_payment · record_expense</text>
<text x="54" y="798" font-size="11" fill="#6E6A61" font-family="ui-monospace,Menlo,Consolas,monospace" text-anchor="start" font-weight="400">create_invoice · set_reminder</text>
<text x="54" y="815" font-size="11" fill="#6E6A61" font-family="ui-monospace,Menlo,Consolas,monospace" text-anchor="start" font-weight="400">save_customer_phone</text>
<rect x="470" y="540" width="1250" height="350" rx="18" fill="none" stroke="#7C5CFF" stroke-width="1.4" stroke-dasharray="3 7" opacity="0.9"/>
<rect x="488" y="527" width="696.4" height="26" rx="13" fill="#7C5CFF"/>
<text x="836.2" y="544" font-size="12.5" fill="#fff" font-family="system-ui,-apple-system,'Segoe UI',Roboto,sans-serif" text-anchor="middle" font-weight="600">MemoryAgent · two-tier long-term memory   (shop-scoped · shared across all chat sessions)</text>
<text x="492" y="576" font-size="12" fill="#1E7E8C" font-family="system-ui,-apple-system,'Segoe UI',Roboto,sans-serif" text-anchor="start" font-weight="700">TIER 1 · Structured facts — canonical-key TRIE   ·   exact lookup · prefix query · instant overwrite  (facts.ts · trie.ts)</text>
<rect x="492" y="607" width="47.0" height="18" rx="9" fill="#1E7E8C"/>
<text x="515.5" y="619" font-size="10" fill="#fff" font-family="ui-monospace,Menlo,Consolas,monospace" text-anchor="middle" font-weight="700">WRITE</text>
<g filter="url(#sh)"><rect x="566" y="588" width="172" height="56" rx="12" fill="#FFFFFF" stroke="#1E7E8C" stroke-width="1.6"/></g>
<rect x="566" y="588" width="5" height="56" rx="2.5" fill="#1E7E8C"/>
<text x="652.0" y="618" font-size="12.5" fill="#211F1B" font-family="system-ui,-apple-system,'Segoe UI',Roboto,sans-serif" text-anchor="middle" font-weight="700">canonicalize</text>
<text x="652.0" y="636" font-size="10" fill="#6E6A61" font-family="ui-monospace,Menlo,Consolas,monospace" text-anchor="middle" font-weight="400">qwen3.5-flash</text>
<g filter="url(#sh)"><rect x="762" y="588" width="196" height="56" rx="12" fill="#FFFFFF" stroke="#1E7E8C" stroke-width="1.6"/></g>
<rect x="762" y="588" width="5" height="56" rx="2.5" fill="#1E7E8C"/>
<text x="860.0" y="618" font-size="12.5" fill="#211F1B" font-family="system-ui,-apple-system,'Segoe UI',Roboto,sans-serif" text-anchor="middle" font-weight="700">key : value</text>
<text x="860.0" y="636" font-size="10" fill="#6E6A61" font-family="ui-monospace,Menlo,Consolas,monospace" text-anchor="middle" font-weight="400">category.subject.attr</text>
<path d="M738 616.0 L762 616.0" fill="none" stroke="#1E7E8C" stroke-width="1.9" marker-end="url(#h1E7E8C)"/>
<g filter="url(#sh)"><rect x="982" y="588" width="188" height="56" rx="12" fill="#FFFFFF" stroke="#1E7E8C" stroke-width="1.6"/></g>
<rect x="982" y="588" width="5" height="56" rx="2.5" fill="#1E7E8C"/>
<text x="1076.0" y="618" font-size="12.5" fill="#211F1B" font-family="system-ui,-apple-system,'Segoe UI',Roboto,sans-serif" text-anchor="middle" font-weight="700">upsert</text>
<text x="1076.0" y="636" font-size="10" fill="#6E6A61" font-family="ui-monospace,Menlo,Consolas,monospace" text-anchor="middle" font-weight="400">overwrite + history</text>
<path d="M958 616.0 L982 616.0" fill="none" stroke="#1E7E8C" stroke-width="1.9" marker-end="url(#h1E7E8C)"/>
<g filter="url(#sh)"><rect x="1194" y="588" width="140" height="56" rx="12" fill="#FFFFFF" stroke="#1E7E8C" stroke-width="1.6"/></g>
<rect x="1194" y="588" width="5" height="56" rx="2.5" fill="#1E7E8C"/>
<text x="1264.0" y="618" font-size="12.5" fill="#211F1B" font-family="system-ui,-apple-system,'Segoe UI',Roboto,sans-serif" text-anchor="middle" font-weight="700">Fact store</text>
<text x="1264.0" y="636" font-size="10" fill="#6E6A61" font-family="ui-monospace,Menlo,Consolas,monospace" text-anchor="middle" font-weight="400">→ facts</text>
<path d="M1170 616.0 L1194 616.0" fill="none" stroke="#1E7E8C" stroke-width="1.9" marker-end="url(#h1E7E8C)"/>
<rect x="492" y="675" width="40.4" height="18" rx="9" fill="#1E7E8C"/>
<text x="512.2" y="687" font-size="10" fill="#fff" font-family="ui-monospace,Menlo,Consolas,monospace" text-anchor="middle" font-weight="700">READ</text>
<g filter="url(#sh)"><rect x="566" y="656" width="176" height="56" rx="12" fill="#FFFFFF" stroke="#1E7E8C" stroke-width="1.6"/></g>
<rect x="566" y="656" width="5" height="56" rx="2.5" fill="#1E7E8C"/>
<text x="654.0" y="686" font-size="12.5" fill="#211F1B" font-family="system-ui,-apple-system,'Segoe UI',Roboto,sans-serif" text-anchor="middle" font-weight="700">build / cache trie</text>
<text x="654.0" y="704" font-size="10" fill="#6E6A61" font-family="ui-monospace,Menlo,Consolas,monospace" text-anchor="middle" font-weight="400">per shop · from facts</text>
<g filter="url(#sh)"><rect x="766" y="656" width="168" height="56" rx="12" fill="#FFFFFF" stroke="#1E7E8C" stroke-width="1.6"/></g>
<rect x="766" y="656" width="5" height="56" rx="2.5" fill="#1E7E8C"/>
<text x="850.0" y="686" font-size="12.5" fill="#211F1B" font-family="system-ui,-apple-system,'Segoe UI',Roboto,sans-serif" text-anchor="middle" font-weight="700">match subject</text>
<text x="850.0" y="704" font-size="10" fill="#6E6A61" font-family="ui-monospace,Menlo,Consolas,monospace" text-anchor="middle" font-weight="400">in the query</text>
<path d="M742 684.0 L766 684.0" fill="none" stroke="#1E7E8C" stroke-width="1.9" marker-end="url(#h1E7E8C)"/>
<g filter="url(#sh)"><rect x="958" y="656" width="176" height="56" rx="12" fill="#FFFFFF" stroke="#1E7E8C" stroke-width="1.6"/></g>
<rect x="958" y="656" width="5" height="56" rx="2.5" fill="#1E7E8C"/>
<text x="1046.0" y="686" font-size="12.5" fill="#211F1B" font-family="system-ui,-apple-system,'Segoe UI',Roboto,sans-serif" text-anchor="middle" font-weight="700">prefix walk</text>
<text x="1046.0" y="704" font-size="10" fill="#6E6A61" font-family="ui-monospace,Menlo,Consolas,monospace" text-anchor="middle" font-weight="400">trie.startsWith()</text>
<path d="M934 684.0 L958 684.0" fill="none" stroke="#1E7E8C" stroke-width="1.9" marker-end="url(#h1E7E8C)"/>
<g filter="url(#sh)"><rect x="1158" y="656" width="208" height="56" rx="12" fill="#FFFFFF" stroke="#1E7E8C" stroke-width="1.6"/></g>
<rect x="1158" y="656" width="5" height="56" rx="2.5" fill="#1E7E8C"/>
<text x="1262.0" y="686" font-size="12.5" fill="#211F1B" font-family="system-ui,-apple-system,'Segoe UI',Roboto,sans-serif" text-anchor="middle" font-weight="700">exact facts</text>
<text x="1262.0" y="704" font-size="10" fill="#6E6A61" font-family="ui-monospace,Menlo,Consolas,monospace" text-anchor="middle" font-weight="400">authoritative → context</text>
<path d="M1134 684.0 L1158 684.0" fill="none" stroke="#1E7E8C" stroke-width="1.9" marker-end="url(#h1E7E8C)"/>
<text x="492" y="732" font-size="12" fill="#7C5CFF" font-family="system-ui,-apple-system,'Segoe UI',Roboto,sans-serif" text-anchor="start" font-weight="700">TIER 2 · Narrative memory — vector store   ·   scored recall + MMR under a token budget · reinforce · forget  (memory.ts)</text>
<rect x="492" y="763" width="47.0" height="18" rx="9" fill="#7C5CFF"/>
<text x="515.5" y="775" font-size="10" fill="#fff" font-family="ui-monospace,Menlo,Consolas,monospace" text-anchor="middle" font-weight="700">WRITE</text>
<g filter="url(#sh)"><rect x="566" y="744" width="188" height="56" rx="12" fill="#FFFFFF" stroke="#7C5CFF" stroke-width="1.6"/></g>
<rect x="566" y="744" width="5" height="56" rx="2.5" fill="#7C5CFF"/>
<text x="660.0" y="774" font-size="12.5" fill="#211F1B" font-family="system-ui,-apple-system,'Segoe UI',Roboto,sans-serif" text-anchor="middle" font-weight="700">rememberFromTurn</text>
<text x="660.0" y="792" font-size="10" fill="#6E6A61" font-family="ui-monospace,Menlo,Consolas,monospace" text-anchor="middle" font-weight="400">distil the turn</text>
<g filter="url(#sh)"><rect x="776" y="744" width="168" height="56" rx="12" fill="#FFFFFF" stroke="#7C5CFF" stroke-width="1.6"/></g>
<rect x="776" y="744" width="5" height="56" rx="2.5" fill="#7C5CFF"/>
<text x="860.0" y="774" font-size="12.5" fill="#211F1B" font-family="system-ui,-apple-system,'Segoe UI',Roboto,sans-serif" text-anchor="middle" font-weight="700">extract</text>
<text x="860.0" y="792" font-size="10" fill="#6E6A61" font-family="ui-monospace,Menlo,Consolas,monospace" text-anchor="middle" font-weight="400">qwen3.5-flash</text>
<path d="M754 772.0 L776 772.0" fill="none" stroke="#7C5CFF" stroke-width="1.9" marker-end="url(#h7C5CFF)"/>
<g filter="url(#sh)"><rect x="966" y="744" width="150" height="56" rx="12" fill="#FFFFFF" stroke="#7C5CFF" stroke-width="1.6"/></g>
<rect x="966" y="744" width="5" height="56" rx="2.5" fill="#7C5CFF"/>
<text x="1041.0" y="774" font-size="12.5" fill="#211F1B" font-family="system-ui,-apple-system,'Segoe UI',Roboto,sans-serif" text-anchor="middle" font-weight="700">embed</text>
<text x="1041.0" y="792" font-size="10" fill="#6E6A61" font-family="ui-monospace,Menlo,Consolas,monospace" text-anchor="middle" font-weight="400">text-embedding-v4</text>
<path d="M944 772.0 L966 772.0" fill="none" stroke="#7C5CFF" stroke-width="1.9" marker-end="url(#h7C5CFF)"/>
<g filter="url(#sh)"><rect x="1138" y="744" width="188" height="56" rx="12" fill="#FFFFFF" stroke="#7C5CFF" stroke-width="1.6"/></g>
<rect x="1138" y="744" width="5" height="56" rx="2.5" fill="#7C5CFF"/>
<text x="1232.0" y="774" font-size="12.5" fill="#211F1B" font-family="system-ui,-apple-system,'Segoe UI',Roboto,sans-serif" text-anchor="middle" font-weight="700">dedup / merge</text>
<text x="1232.0" y="792" font-size="10" fill="#6E6A61" font-family="ui-monospace,Menlo,Consolas,monospace" text-anchor="middle" font-weight="400">cosine ≥ 0.82</text>
<path d="M1116 772.0 L1138 772.0" fill="none" stroke="#7C5CFF" stroke-width="1.9" marker-end="url(#h7C5CFF)"/>
<g filter="url(#sh)"><rect x="1348" y="744" width="156" height="56" rx="12" fill="#FFFFFF" stroke="#7C5CFF" stroke-width="1.6"/></g>
<rect x="1348" y="744" width="5" height="56" rx="2.5" fill="#7C5CFF"/>
<text x="1426.0" y="774" font-size="12.5" fill="#211F1B" font-family="system-ui,-apple-system,'Segoe UI',Roboto,sans-serif" text-anchor="middle" font-weight="700">store · forget</text>
<text x="1426.0" y="792" font-size="10" fill="#6E6A61" font-family="ui-monospace,Menlo,Consolas,monospace" text-anchor="middle" font-weight="400">cap 600 · evict</text>
<path d="M1326 772.0 L1348 772.0" fill="none" stroke="#7C5CFF" stroke-width="1.9" marker-end="url(#h7C5CFF)"/>
<rect x="492" y="831" width="40.4" height="18" rx="9" fill="#7C5CFF"/>
<text x="512.2" y="843" font-size="10" fill="#fff" font-family="ui-monospace,Menlo,Consolas,monospace" text-anchor="middle" font-weight="700">READ</text>
<g filter="url(#sh)"><rect x="566" y="812" width="150" height="56" rx="12" fill="#FFFFFF" stroke="#7C5CFF" stroke-width="1.6"/></g>
<rect x="566" y="812" width="5" height="56" rx="2.5" fill="#7C5CFF"/>
<text x="641.0" y="842" font-size="12.5" fill="#211F1B" font-family="system-ui,-apple-system,'Segoe UI',Roboto,sans-serif" text-anchor="middle" font-weight="700">embed query</text>
<text x="641.0" y="860" font-size="10" fill="#6E6A61" font-family="ui-monospace,Menlo,Consolas,monospace" text-anchor="middle" font-weight="400">text-embedding-v4</text>
<g filter="url(#sh)"><rect x="736" y="812" width="140" height="56" rx="12" fill="#FFFFFF" stroke="#7C5CFF" stroke-width="1.6"/></g>
<rect x="736" y="812" width="5" height="56" rx="2.5" fill="#7C5CFF"/>
<text x="806.0" y="842" font-size="12.5" fill="#211F1B" font-family="system-ui,-apple-system,'Segoe UI',Roboto,sans-serif" text-anchor="middle" font-weight="700">fetch ≤400</text>
<text x="806.0" y="860" font-size="10" fill="#6E6A61" font-family="ui-monospace,Menlo,Consolas,monospace" text-anchor="middle" font-weight="400">pre-sorted</text>
<path d="M716 840.0 L736 840.0" fill="none" stroke="#7C5CFF" stroke-width="1.9" marker-end="url(#h7C5CFF)"/>
<g filter="url(#sh)"><rect x="896" y="812" width="196" height="56" rx="12" fill="#FFFFFF" stroke="#7C5CFF" stroke-width="1.6"/></g>
<rect x="896" y="812" width="5" height="56" rx="2.5" fill="#7C5CFF"/>
<text x="994.0" y="842" font-size="12.5" fill="#211F1B" font-family="system-ui,-apple-system,'Segoe UI',Roboto,sans-serif" text-anchor="middle" font-weight="700">score</text>
<text x="994.0" y="860" font-size="10" fill="#6E6A61" font-family="ui-monospace,Menlo,Consolas,monospace" text-anchor="middle" font-weight="400">cos × imp × recency</text>
<path d="M876 840.0 L896 840.0" fill="none" stroke="#7C5CFF" stroke-width="1.9" marker-end="url(#h7C5CFF)"/>
<g filter="url(#sh)"><rect x="1112" y="812" width="108" height="56" rx="12" fill="#FFFFFF" stroke="#7C5CFF" stroke-width="1.6"/></g>
<rect x="1112" y="812" width="5" height="56" rx="2.5" fill="#7C5CFF"/>
<text x="1166.0" y="842" font-size="12.5" fill="#211F1B" font-family="system-ui,-apple-system,'Segoe UI',Roboto,sans-serif" text-anchor="middle" font-weight="700">gate</text>
<text x="1166.0" y="860" font-size="10" fill="#6E6A61" font-family="ui-monospace,Menlo,Consolas,monospace" text-anchor="middle" font-weight="400">≥ 0.36</text>
<path d="M1092 840.0 L1112 840.0" fill="none" stroke="#7C5CFF" stroke-width="1.9" marker-end="url(#h7C5CFF)"/>
<g filter="url(#sh)"><rect x="1240" y="812" width="190" height="56" rx="12" fill="#FFFFFF" stroke="#7C5CFF" stroke-width="1.6"/></g>
<rect x="1240" y="812" width="5" height="56" rx="2.5" fill="#7C5CFF"/>
<text x="1335.0" y="842" font-size="12.5" fill="#211F1B" font-family="system-ui,-apple-system,'Segoe UI',Roboto,sans-serif" text-anchor="middle" font-weight="700">MMR select</text>
<text x="1335.0" y="860" font-size="10" fill="#6E6A61" font-family="ui-monospace,Menlo,Consolas,monospace" text-anchor="middle" font-weight="400">λ0.72 · ≤720ch</text>
<path d="M1220 840.0 L1240 840.0" fill="none" stroke="#7C5CFF" stroke-width="1.9" marker-end="url(#h7C5CFF)"/>
<g filter="url(#sh)"><rect x="1450" y="812" width="176" height="56" rx="12" fill="#FFFFFF" stroke="#7C5CFF" stroke-width="1.6"/></g>
<rect x="1450" y="812" width="5" height="56" rx="2.5" fill="#7C5CFF"/>
<text x="1538.0" y="842" font-size="12.5" fill="#211F1B" font-family="system-ui,-apple-system,'Segoe UI',Roboto,sans-serif" text-anchor="middle" font-weight="700">reinforce</text>
<text x="1538.0" y="860" font-size="10" fill="#6E6A61" font-family="ui-monospace,Menlo,Consolas,monospace" text-anchor="middle" font-weight="400">importance↑ · recency</text>
<path d="M1430 840.0 L1450 840.0" fill="none" stroke="#7C5CFF" stroke-width="1.9" marker-end="url(#h7C5CFF)"/>
<g filter="url(#sh)">
<path d="M590 946 v110 a280.0 20 0 0 0 560 0 v-110" fill="#FFFFFF" stroke="#E1D9C8"/>
<ellipse cx="870.0" cy="946" rx="280.0" ry="20" fill="#FFFFFF" stroke="#E1D9C8"/>
</g>
<ellipse cx="870.0" cy="946" rx="280.0" ry="20" fill="none" stroke="#2E9C6E" stroke-width="1.6"/>
<text x="870.0" y="951" font-size="13" fill="#211F1B" font-family="system-ui,-apple-system,'Segoe UI',Roboto,sans-serif" text-anchor="middle" font-weight="700">MongoDB · Mongoose</text>
<text x="870" y="982" font-size="11" fill="#6E6A61" font-family="ui-monospace,Menlo,Consolas,monospace" text-anchor="middle" font-weight="400">users · shops · customers</text>
<text x="870" y="1000" font-size="11" fill="#6E6A61" font-family="ui-monospace,Menlo,Consolas,monospace" text-anchor="middle" font-weight="400">inventoryitems · debts · transactions</text>
<text x="870" y="1018" font-size="11" fill="#6E6A61" font-family="ui-monospace,Menlo,Consolas,monospace" text-anchor="middle" font-weight="400">invoices · reminders · chatmessages · chatsessions</text>
<text x="870" y="1040" font-size="11" fill="#1E7E8C" font-family="ui-monospace,Menlo,Consolas,monospace" text-anchor="middle" font-weight="700">facts  —  key · value · history   ·   TRIE source of truth</text>
<text x="870" y="1060" font-size="11" fill="#7C5CFF" font-family="ui-monospace,Menlo,Consolas,monospace" text-anchor="middle" font-weight="700">memories  —  vector · importance · recency · accessCount</text>
<path d="M220 300 L268 300" fill="none" stroke="#57524A" stroke-width="1.9" marker-end="url(#h57524A)" marker-start="url(#h57524A)"/>
<rect x="203.35" y="282.0" width="81.3" height="17" rx="6" fill="#F5F1E8" opacity="0.95"/>
<text x="244.0" y="295.0" font-size="10.5" fill="#57524A" font-family="ui-monospace,Menlo,Consolas,monospace" text-anchor="middle" font-weight="600">HTTPS · JWT</text>
<path d="M418 314 L458 320" fill="none" stroke="#57524A" stroke-width="1.9" marker-end="url(#h57524A)" marker-start="url(#h57524A)"/>
<rect x="419.4" y="299.0" width="37.2" height="17" rx="6" fill="#F5F1E8" opacity="0.95"/>
<text x="438.0" y="312.0" font-size="10.5" fill="#57524A" font-family="ui-monospace,Menlo,Consolas,monospace" text-anchor="middle" font-weight="600">/api</text>
<path d="M750 300 L820 300" fill="none" stroke="#57524A" stroke-width="1.9" marker-end="url(#h57524A)" marker-start="url(#h57524A)"/>
<rect x="747.5" y="276" width="75.0" height="17" rx="6" fill="#F5F1E8" opacity="0.95"/>
<text x="785" y="289" font-size="10.5" fill="#57524A" font-family="ui-monospace,Menlo,Consolas,monospace" text-anchor="middle" font-weight="600">POST /chat</text>
<path d="M1204 214 L1262 213" fill="none" stroke="#C67A12" stroke-width="1.9" marker-end="url(#hC67A12)" marker-start="url(#hC67A12)"/>
<rect x="1170.3" y="188" width="125.39999999999999" height="17" rx="6" fill="#F5F1E8" opacity="0.95"/>
<text x="1233" y="201" font-size="10.5" fill="#C67A12" font-family="ui-monospace,Menlo,Consolas,monospace" text-anchor="middle" font-weight="600">tool-loop + stream</text>
<path d="M900 379 L760 540" fill="none" stroke="#7C5CFF" stroke-width="1.9" marker-end="url(#h7C5CFF)"/>
<rect x="672.65" y="456" width="194.7" height="17" rx="6" fill="#F5F1E8" opacity="0.95"/>
<text x="770" y="469" font-size="10.5" fill="#7C5CFF" font-family="ui-monospace,Menlo,Consolas,monospace" text-anchor="middle" font-weight="600">remember (both tiers) · async</text>
<path d="M1040 379 L1090 540" fill="none" stroke="#7C5CFF" stroke-width="1.9" marker-end="url(#h7C5CFF)" marker-start="url(#h7C5CFF)"/>
<rect x="1071.55" y="456" width="156.9" height="17" rx="6" fill="#F5F1E8" opacity="0.95"/>
<text x="1150" y="469" font-size="10.5" fill="#7C5CFF" font-family="ui-monospace,Menlo,Consolas,monospace" text-anchor="middle" font-weight="600">hybrid recall → context</text>
<path d="M1520 540 L1520 522" fill="none" stroke="#7C5CFF" stroke-width="1.9" marker-end="url(#h7C5CFF)" marker-start="url(#h7C5CFF)"/>
<rect x="1397.45" y="494" width="245.1" height="17" rx="6" fill="#F5F1E8" opacity="0.95"/>
<text x="1520" y="507" font-size="10.5" fill="#7C5CFF" font-family="ui-monospace,Menlo,Consolas,monospace" text-anchor="middle" font-weight="600">embed · extract · canonicalize (Qwen)</text>
<path d="M845 379 L845 452 L250 452 L250 720" fill="none" stroke="#2E9C6E" stroke-width="1.9" marker-end="url(#h2E9C6E)"/>
<rect x="383.05" y="432" width="93.89999999999999" height="17" rx="6" fill="#F5F1E8" opacity="0.95"/>
<text x="430" y="445" font-size="10.5" fill="#2E9C6E" font-family="ui-monospace,Menlo,Consolas,monospace" text-anchor="middle" font-weight="600">executeTool()</text>
<path d="M230 870 L600 960" fill="none" stroke="#2E9C6E" stroke-width="1.9" marker-end="url(#h2E9C6E)"/>
<rect x="396.4" y="897.0" width="37.2" height="17" rx="6" fill="#F5F1E8" opacity="0.95"/>
<text x="415.0" y="910.0" font-size="10.5" fill="#2E9C6E" font-family="ui-monospace,Menlo,Consolas,monospace" text-anchor="middle" font-weight="600">CRUD</text>
<path d="M900 890 L900 926" fill="none" stroke="#2E9C6E" stroke-width="1.9" marker-end="url(#h2E9C6E)" marker-start="url(#h2E9C6E)"/>
<rect x="936.2" y="898" width="87.6" height="17" rx="6" fill="#F5F1E8" opacity="0.95"/>
<text x="980" y="911" font-size="10.5" fill="#2E9C6E" font-family="ui-monospace,Menlo,Consolas,monospace" text-anchor="middle" font-weight="600">read / write</text>
<rect x="1288" y="906" width="424" height="176" rx="14" fill="#FFFFFF" stroke="#E1D9C8"/>
<text x="1306" y="934" font-size="13" fill="#211F1B" font-family="system-ui,-apple-system,'Segoe UI',Roboto,sans-serif" text-anchor="start" font-weight="700">Legend</text>
<rect x="1306" y="948" width="26" height="16" rx="5" fill="#FFFFFF" stroke="#E1D9C8"/>
<text x="1340" y="961" font-size="11" fill="#6E6A61" font-family="system-ui,-apple-system,'Segoe UI',Roboto,sans-serif" text-anchor="start" font-weight="400">service / handler</text>
<ellipse cx="1319" cy="984" rx="13" ry="7" fill="#FFFFFF" stroke="#2E9C6E"/>
<text x="1340" y="987" font-size="11" fill="#6E6A61" font-family="system-ui,-apple-system,'Segoe UI',Roboto,sans-serif" text-anchor="start" font-weight="400">datastore (MongoDB)</text>
<rect x="1306" y="1000" width="26" height="16" rx="5" fill="none" stroke="#7C5CFF" stroke-dasharray="3 4"/>
<text x="1340" y="1013" font-size="11" fill="#6E6A61" font-family="system-ui,-apple-system,'Segoe UI',Roboto,sans-serif" text-anchor="start" font-weight="400">subsystem boundary</text>
<path d="M1500 956 h30" stroke="#1E7E8C" stroke-width="2" marker-end="url(#h1E7E8C)"/>
<text x="1538" y="960" font-size="11" fill="#6E6A61" font-family="system-ui,-apple-system,'Segoe UI',Roboto,sans-serif" text-anchor="start" font-weight="400">fact path (trie)</text>
<path d="M1500 982 h30" stroke="#7C5CFF" stroke-width="2" marker-end="url(#h7C5CFF)"/>
<text x="1538" y="986" font-size="11" fill="#6E6A61" font-family="system-ui,-apple-system,'Segoe UI',Roboto,sans-serif" text-anchor="start" font-weight="400">memory path (vectors)</text>
<path d="M1500 1008 h30" stroke="#C67A12" stroke-width="2" marker-end="url(#hC67A12)"/>
<text x="1538" y="1012" font-size="11" fill="#6E6A61" font-family="system-ui,-apple-system,'Segoe UI',Roboto,sans-serif" text-anchor="start" font-weight="400">Qwen model call</text>
<path d="M1500 1034 h30" stroke="#2E9C6E" stroke-width="2" marker-end="url(#h2E9C6E)"/>
<text x="1538" y="1038" font-size="11" fill="#6E6A61" font-family="system-ui,-apple-system,'Segoe UI',Roboto,sans-serif" text-anchor="start" font-weight="400">data read / write</text>
</svg>