<svg xmlns="http://www.w3.org/2000/svg" viewBox="0 0 1760 1010" font-family="system-ui,-apple-system,Segoe UI,Roboto,sans-serif">
<defs><filter id="sh" x="-8%" y="-8%" width="116%" height="122%"><feDropShadow dx="0" dy="2" stdDeviation="3" flood-color="#8a6a45" flood-opacity="0.14"/></filter><linearGradient id="kbg" x1="0" y1="0" x2="1" y2="1"><stop stop-color="#F15A36"/><stop offset="1" stop-color="#D83A18"/></linearGradient><g id="klogo"><path d="M56 28h144c15.5 0 28 12.5 28 28v124c0 15.5-12.5 28-28 28h-39.7l-37.4 27.5c-8.5 6.3-20.6.2-20.6-10.3V208H56c-15.5 0-28-12.5-28-28V56c0-15.5 12.5-28 28-28Z" fill="url(#kbg)"/><path d="M74 76v100" stroke="#FFF8F4" stroke-width="30" stroke-linecap="round"/><path d="M94 128 166 76" stroke="#FFF8F4" stroke-width="30" stroke-linecap="round" stroke-linejoin="round"/><path d="M96 130 178 176" stroke="#FFF8F4" stroke-width="30" stroke-linecap="round" stroke-linejoin="round"/><path d="M151 91h29M141 128h38M154 165h24" stroke="#FFDAD1" stroke-width="10" stroke-linecap="round" opacity=".9"/><circle cx="100" cy="128" r="12" fill="#FFDAD1"/></g><marker id="a9A958A" viewBox="0 0 10 10" refX="8.5" refY="5" markerWidth="7" markerHeight="7" orient="auto-start-reverse"><path d="M0,0 L10,5 L0,10 z" fill="#9A958A"/></marker><marker id="a7C5CFF" viewBox="0 0 10 10" refX="8.5" refY="5" markerWidth="7" markerHeight="7" orient="auto-start-reverse"><path d="M0,0 L10,5 L0,10 z" fill="#7C5CFF"/></marker><marker id="a0E9C5A" viewBox="0 0 10 10" refX="8.5" refY="5" markerWidth="7" markerHeight="7" orient="auto-start-reverse"><path d="M0,0 L10,5 L0,10 z" fill="#0E9C5A"/></marker><marker id="aEB4A26" viewBox="0 0 10 10" refX="8.5" refY="5" markerWidth="7" markerHeight="7" orient="auto-start-reverse"><path d="M0,0 L10,5 L0,10 z" fill="#EB4A26"/></marker><marker id="aC67A12" viewBox="0 0 10 10" refX="8.5" refY="5" markerWidth="7" markerHeight="7" orient="auto-start-reverse"><path d="M0,0 L10,5 L0,10 z" fill="#C67A12"/></marker><marker id="aE0463A" viewBox="0 0 10 10" refX="8.5" refY="5" markerWidth="7" markerHeight="7" orient="auto-start-reverse"><path d="M0,0 L10,5 L0,10 z" fill="#E0463A"/></marker></defs>
<rect width="1760" height="1010" fill="#F6F3EC"/>
<text x="40" y="46" font-size="29" fill="#211F1B" font-family="system-ui,-apple-system,Segoe UI,Roboto,sans-serif" text-anchor="start">Kredex — System Architecture</text>
<rect x="42" y="56" width="44" height="3" fill="#EB4A26"/>
<text x="40" y="80" font-size="13.5" fill="#6E6A61" font-family="system-ui,-apple-system,Segoe UI,Roboto,sans-serif" text-anchor="start">Request flow across the client, the Express server, the Qwen models, and MongoDB — how every component connects.</text>
<use href="#klogo" transform="translate(1680,16) scale(0.15)"/>
<rect x="40" y="100" width="1680" height="150" rx="18" fill="#F1EDFF" stroke="#7C5CFF" stroke-width="1.4"/>
<text x="60" y="128" font-size="12" fill="#4B37B0" font-family="ui-monospace,Menlo,monospace" font-weight="700" text-anchor="start">QWEN CLOUD</text>
<text x="60" y="146" font-size="10.5" fill="#6E6A61" font-family="ui-monospace,Menlo,monospace" text-anchor="start">Alibaba Model Studio · DashScope</text>
<text x="60" y="168" font-size="10" fill="#9A88E0" font-family="ui-monospace,Menlo,monospace" text-anchor="start">one OpenAI-compatible client</text>
<text x="60" y="183" font-size="10" fill="#9A88E0" font-family="ui-monospace,Menlo,monospace" text-anchor="start">— the route + intent picks</text>
<text x="60" y="198" font-size="10" fill="#9A88E0" font-family="ui-monospace,Menlo,monospace" text-anchor="start">which model runs</text>
<g filter="url(#sh)"><rect x="727" y="150" width="156" height="76" rx="12" fill="#fff" stroke="#E3DBF6"/></g>
<text x="805" y="178" font-size="12" fill="#4B37B0" font-family="ui-monospace,Menlo,monospace" font-weight="600" text-anchor="middle">qwen3.5-flash</text>
<text x="805" y="200" font-size="10" fill="#6E6A61" font-family="ui-monospace,Menlo,monospace" text-anchor="middle">chat · tools</text>
<g filter="url(#sh)"><rect x="919" y="150" width="156" height="76" rx="12" fill="#fff" stroke="#E3DBF6"/></g>
<text x="997" y="178" font-size="12" fill="#4B37B0" font-family="ui-monospace,Menlo,monospace" font-weight="600" text-anchor="middle">text-embedding-v4</text>
<text x="997" y="200" font-size="10" fill="#6E6A61" font-family="ui-monospace,Menlo,monospace" text-anchor="middle">memory · cosine</text>
<g filter="url(#sh)"><rect x="1081" y="150" width="156" height="76" rx="12" fill="#fff" stroke="#E3DBF6"/></g>
<text x="1159" y="178" font-size="12" fill="#4B37B0" font-family="ui-monospace,Menlo,monospace" font-weight="600" text-anchor="middle">qwen-vl-max</text>
<text x="1159" y="200" font-size="10" fill="#6E6A61" font-family="ui-monospace,Menlo,monospace" text-anchor="middle">receipt OCR</text>
<g filter="url(#sh)"><rect x="1243" y="150" width="156" height="76" rx="12" fill="#fff" stroke="#E3DBF6"/></g>
<text x="1321" y="178" font-size="12" fill="#4B37B0" font-family="ui-monospace,Menlo,monospace" font-weight="600" text-anchor="middle">qwen3-asr / tts</text>
<text x="1321" y="200" font-size="10" fill="#6E6A61" font-family="ui-monospace,Menlo,monospace" text-anchor="middle">voice ⇄ text</text>
<g filter="url(#sh)"><rect x="1405" y="150" width="156" height="76" rx="12" fill="#fff" stroke="#E3DBF6"/></g>
<text x="1483" y="178" font-size="12" fill="#4B37B0" font-family="ui-monospace,Menlo,monospace" font-weight="600" text-anchor="middle">qwen3.7-max</text>
<text x="1483" y="200" font-size="10" fill="#6E6A61" font-family="ui-monospace,Menlo,monospace" text-anchor="middle">P&amp;L reasoning</text>
<g filter="url(#sh)"><rect x="1567" y="150" width="156" height="76" rx="12" fill="#fff" stroke="#E3DBF6"/></g>
<text x="1645" y="178" font-size="12" fill="#4B37B0" font-family="ui-monospace,Menlo,monospace" font-weight="600" text-anchor="middle">web search</text>
<text x="1645" y="200" font-size="10" fill="#6E6A61" font-family="ui-monospace,Menlo,monospace" text-anchor="middle">grants · events</text>
<rect x="40" y="862" width="1680" height="120" rx="18" fill="#E4F5EA" stroke="#0E9C5A" stroke-width="1.4"/>
<rect x="60" y="892" width="34" height="34" rx="9" fill="#10A050"/>
<text x="77" y="914" font-size="15" fill="#fff" font-family="system-ui,-apple-system,Segoe UI,Roboto,sans-serif" font-weight="700" text-anchor="middle">M</text>
<text x="108" y="908" font-size="15" fill="#211F1B" font-family="system-ui,-apple-system,Segoe UI,Roboto,sans-serif" font-weight="700" text-anchor="start">MongoDB</text>
<text x="108" y="930" font-size="10.5" fill="#6E6A61" font-family="ui-monospace,Menlo,monospace" text-anchor="start">one connection (Mongoose) · persistent volume</text>
<text x="470" y="900" font-size="10.5" fill="#2f7d54" font-family="ui-monospace,Menlo,monospace" text-anchor="start">users · shops · customers · inventoryitems · debts · transactions</text>
<text x="470" y="918" font-size="10.5" fill="#2f7d54" font-family="ui-monospace,Menlo,monospace" text-anchor="start">invoices · reminders · chatmessages · memories</text>
<g filter="url(#sh)"><rect x="56" y="360" width="150" height="150" rx="14" fill="#fff" stroke="#E7E1D3"/></g><rect x="56" y="360" width="150" height="26" rx="14" fill="#9A958A"/><rect x="56" y="373" width="150" height="13" fill="#9A958A"/><text x="131.0" y="378" font-size="12" fill="#fff" font-family="system-ui,-apple-system,Segoe UI,Roboto,sans-serif" text-anchor="middle">Client</text><text x="68" y="404" font-size="10.5" fill="#211F1B" font-family="ui-monospace,Menlo,monospace" text-anchor="start">React 19 SPA</text><text x="68" y="420" font-size="10.5" fill="#6E6A61" font-family="ui-monospace,Menlo,monospace" text-anchor="start">Vite · SSE</text><text x="68" y="436" font-size="10.5" fill="#6E6A61" font-family="ui-monospace,Menlo,monospace" text-anchor="start">JWT in header</text><text x="68" y="452" font-size="10.5" fill="#6E6A61" font-family="ui-monospace,Menlo,monospace" text-anchor="start">chat · dashboard</text><text x="68" y="468" font-size="10.5" fill="#6E6A61" font-family="ui-monospace,Menlo,monospace" text-anchor="start">memory · voice</text>
<g filter="url(#sh)"><rect x="232" y="360" width="214" height="150" rx="14" fill="#fff" stroke="#E7E1D3"/></g><rect x="232" y="360" width="214" height="26" rx="14" fill="#9A958A"/><rect x="232" y="373" width="214" height="13" fill="#9A958A"/><text x="339.0" y="378" font-size="12" fill="#fff" font-family="system-ui,-apple-system,Segoe UI,Roboto,sans-serif" text-anchor="middle">Edge + Gateway</text><text x="244" y="404" font-size="10.5" fill="#211F1B" font-family="ui-monospace,Menlo,monospace" text-anchor="start">Caddy TLS → nginx</text><text x="244" y="420" font-size="10.5" fill="#6E6A61" font-family="ui-monospace,Menlo,monospace" text-anchor="start">compression (SSE-safe)</text><text x="244" y="436" font-size="10.5" fill="#6E6A61" font-family="ui-monospace,Menlo,monospace" text-anchor="start">CORS · express.json</text><text x="244" y="452" font-size="10.5" fill="#EB4A26" font-family="ui-monospace,Menlo,monospace" text-anchor="start">rate limit · requireAuth</text><text x="244" y="468" font-size="10.5" fill="#0E9C5A" font-family="ui-monospace,Menlo,monospace" text-anchor="start">JWT → req.shopId</text>
<g filter="url(#sh)"><rect x="472" y="360" width="150" height="150" rx="14" fill="#fff" stroke="#E7E1D3"/></g><rect x="472" y="360" width="150" height="26" rx="14" fill="#EB4A26"/><rect x="472" y="373" width="150" height="13" fill="#EB4A26"/><text x="547.0" y="378" font-size="12" fill="#fff" font-family="system-ui,-apple-system,Segoe UI,Roboto,sans-serif" text-anchor="middle">Router</text><text x="484" y="404" font-size="10.5" fill="#211F1B" font-family="ui-monospace,Menlo,monospace" text-anchor="start">Express</text><text x="484" y="420" font-size="10.5" fill="#6E6A61" font-family="ui-monospace,Menlo,monospace" text-anchor="start">11 route groups</text><text x="484" y="436" font-size="10.5" fill="#6E6A61" font-family="ui-monospace,Menlo,monospace" text-anchor="start">dispatch to</text><text x="484" y="452" font-size="10.5" fill="#6E6A61" font-family="ui-monospace,Menlo,monospace" text-anchor="start">handlers</text>
<line x1="206" y1="435" x2="232" y2="435" stroke="#9A958A" stroke-width="1.9" marker-end="url(#a9A958A)" marker-start="url(#a9A958A)"/>
<line x1="446" y1="435" x2="472" y2="435" stroke="#9A958A" stroke-width="1.9" marker-end="url(#a9A958A)" marker-start="url(#a9A958A)"/>
<line x1="622" y1="432" x2="700" y2="430" stroke="#EB4A26" stroke-width="1.9" marker-end="url(#aEB4A26)" marker-start="url(#aEB4A26)"/><text x="905" y="352" font-size="10" fill="#EB4A26" font-family="ui-monospace,Menlo,monospace" text-anchor="middle">POST /chat (SSE)  +  REST → each handler</text>
<line x1="339" y1="510" x2="339" y2="548" stroke="#E0463A" stroke-width="1.9" marker-end="url(#aE0463A)"/>
<rect x="250" y="548" width="196" height="30" rx="8" fill="#FCE8E6" stroke="#F3C6C1"/>
<text x="348" y="568" font-size="10" fill="#E0463A" font-family="ui-monospace,Menlo,monospace" text-anchor="middle">reject → 429 · 401 · 400 · 422</text>
<g filter="url(#sh)"><rect x="56" y="600" width="390" height="96" rx="14" fill="#fff" stroke="#E7E1D3"/></g><rect x="56" y="600" width="390" height="26" rx="14" fill="#7C5CFF"/><rect x="56" y="613" width="390" height="13" fill="#7C5CFF"/><text x="251.0" y="618" font-size="12" fill="#fff" font-family="system-ui,-apple-system,Segoe UI,Roboto,sans-serif" text-anchor="middle">Memory engine · the MemoryAgent core</text><text x="68" y="644" font-size="10.5" fill="#6E6A61" font-family="ui-monospace,Menlo,monospace" text-anchor="start">rememberFromTurn(): distil turn → typed memories</text><text x="68" y="660" font-size="10.5" fill="#6E6A61" font-family="ui-monospace,Menlo,monospace" text-anchor="start">recall(): cosine × importance × recency → MMR + budget</text><text x="68" y="676" font-size="10.5" fill="#7C5CFF" font-family="ui-monospace,Menlo,monospace" text-anchor="start">reinforce on use · dedup-merge · forget the stale</text>
<line x1="250" y1="696" x2="250" y2="862" stroke="#0E9C5A" stroke-width="1.9" marker-end="url(#a0E9C5A)" marker-start="url(#a0E9C5A)"/><text x="250" y="806" font-size="9.5" fill="#0E9C5A" font-family="ui-monospace,Menlo,monospace" text-anchor="middle">read/write</text>
<g filter="url(#sh)"><rect x="56" y="716" width="390" height="110" rx="14" fill="#fff" stroke="#E7E1D3"/></g><rect x="56" y="716" width="390" height="26" rx="14" fill="#9A958A"/><rect x="56" y="729" width="390" height="13" fill="#9A958A"/><text x="251.0" y="734" font-size="12" fill="#fff" font-family="system-ui,-apple-system,Segoe UI,Roboto,sans-serif" text-anchor="middle">Error handling · fails safe, not silently</text><text x="68" y="760" font-size="10.5" fill="#6E6A61" font-family="ui-monospace,Menlo,monospace" text-anchor="start">env.ts validates config at boot — missing QWEN_API_KEY /</text><text x="68" y="776" font-size="10.5" fill="#E0463A" font-family="ui-monospace,Menlo,monospace" text-anchor="start">MONGODB_URI / JWT_SECRET → clear msg + process.exit(1)</text><text x="68" y="792" font-size="10.5" fill="#6E6A61" font-family="ui-monospace,Menlo,monospace" text-anchor="start">connectDB try/catch → /health survives a DB outage</text><text x="68" y="808" font-size="10.5" fill="#211F1B" font-family="ui-monospace,Menlo,monospace" text-anchor="start">every route try/catch → JSON {error} + HTTP status</text>
<g filter="url(#sh)"><rect x="700.0" y="340" width="210" height="300" rx="14" fill="#fff" stroke="#E7E1D3"/></g><rect x="700.0" y="340" width="210" height="26" rx="14" fill="#EB4A26"/><rect x="700.0" y="353" width="210" height="13" fill="#EB4A26"/><text x="805.0" y="358" font-size="12" fill="#fff" font-family="system-ui,-apple-system,Segoe UI,Roboto,sans-serif" text-anchor="middle">Agent core</text><text x="712.0" y="381" font-size="9.5" fill="#EB4A26" font-family="ui-monospace,Menlo,monospace" text-anchor="start">POST /chat</text><text x="712.0" y="397" font-size="10.5" fill="#EB4A26" font-family="ui-monospace,Menlo,monospace" text-anchor="start">classify() intent</text><text x="712.0" y="413" font-size="10.5" fill="#7C5CFF" font-family="ui-monospace,Menlo,monospace" text-anchor="start">qwen3.5-flash</text><text x="712.0" y="429" font-size="10.5" fill="#6E6A61" font-family="ui-monospace,Menlo,monospace" text-anchor="start">tool-loop (≤4)</text><text x="712.0" y="445" font-size="10.5" fill="#0E9C5A" font-family="ui-monospace,Menlo,monospace" text-anchor="start">executeTool→DB</text><text x="712.0" y="461" font-size="10.5" fill="#6E6A61" font-family="ui-monospace,Menlo,monospace" text-anchor="start">stream reply</text><text x="712.0" y="477" font-size="10.5" fill="#6E6A61" font-family="ui-monospace,Menlo,monospace" text-anchor="start">tools: record_sale,</text><text x="712.0" y="493" font-size="10.5" fill="#6E6A61" font-family="ui-monospace,Menlo,monospace" text-anchor="start">create_invoice,</text><text x="712.0" y="509" font-size="10.5" fill="#6E6A61" font-family="ui-monospace,Menlo,monospace" text-anchor="start">set_reminder…</text>
<line x1="805" y1="340" x2="805" y2="232" stroke="#7C5CFF" stroke-width="1.9" marker-end="url(#a7C5CFF)" marker-start="url(#a7C5CFF)"/>
<line x1="805" y1="640" x2="805" y2="862" stroke="#0E9C5A" stroke-width="1.9" marker-end="url(#a0E9C5A)" marker-start="url(#a0E9C5A)"/>
<g filter="url(#sh)"><rect x="922.0" y="340" width="150" height="300" rx="14" fill="#fff" stroke="#E7E1D3"/></g><rect x="922.0" y="340" width="150" height="26" rx="14" fill="#7C5CFF"/><rect x="922.0" y="353" width="150" height="13" fill="#7C5CFF"/><text x="997.0" y="358" font-size="12" fill="#fff" font-family="system-ui,-apple-system,Segoe UI,Roboto,sans-serif" text-anchor="middle">Memory</text><text x="934.0" y="381" font-size="9.5" fill="#7C5CFF" font-family="ui-monospace,Menlo,monospace" text-anchor="start">RAG</text><text x="934.0" y="397" font-size="10.5" fill="#6E6A61" font-family="ui-monospace,Menlo,monospace" text-anchor="start">remember / recall</text><text x="934.0" y="413" font-size="10.5" fill="#7C5CFF" font-family="ui-monospace,Menlo,monospace" text-anchor="start">embed(text)</text><text x="934.0" y="429" font-size="10.5" fill="#6E6A61" font-family="ui-monospace,Menlo,monospace" text-anchor="start">→ cosine() vs</text><text x="934.0" y="445" font-size="10.5" fill="#6E6A61" font-family="ui-monospace,Menlo,monospace" text-anchor="start">300 recent</text><text x="934.0" y="461" font-size="10.5" fill="#211F1B" font-family="ui-monospace,Menlo,monospace" text-anchor="start">≥0.40 → top-5</text><text x="934.0" y="477" font-size="10.5" fill="#6E6A61" font-family="ui-monospace,Menlo,monospace" text-anchor="start">→ into prompt</text>
<line x1="997" y1="340" x2="997" y2="232" stroke="#7C5CFF" stroke-width="1.9" marker-end="url(#a7C5CFF)" marker-start="url(#a7C5CFF)"/>
<line x1="997" y1="640" x2="997" y2="862" stroke="#0E9C5A" stroke-width="1.9" marker-end="url(#a0E9C5A)" marker-start="url(#a0E9C5A)"/>
<g filter="url(#sh)"><rect x="1084.0" y="340" width="150" height="300" rx="14" fill="#fff" stroke="#E7E1D3"/></g><rect x="1084.0" y="340" width="150" height="26" rx="14" fill="#C67A12"/><rect x="1084.0" y="353" width="150" height="13" fill="#C67A12"/><text x="1159.0" y="358" font-size="12" fill="#fff" font-family="system-ui,-apple-system,Segoe UI,Roboto,sans-serif" text-anchor="middle">Receipt OCR</text><text x="1096.0" y="381" font-size="9.5" fill="#C67A12" font-family="ui-monospace,Menlo,monospace" text-anchor="start">POST /receipt</text><text x="1096.0" y="397" font-size="10.5" fill="#6E6A61" font-family="ui-monospace,Menlo,monospace" text-anchor="start">multer → base64</text><text x="1096.0" y="413" font-size="10.5" fill="#7C5CFF" font-family="ui-monospace,Menlo,monospace" text-anchor="start">qwen-vl-max</text><text x="1096.0" y="429" font-size="10.5" fill="#6E6A61" font-family="ui-monospace,Menlo,monospace" text-anchor="start">reads image →</text><text x="1096.0" y="445" font-size="10.5" fill="#211F1B" font-family="ui-monospace,Menlo,monospace" text-anchor="start">items{name,qty}</text><text x="1096.0" y="461" font-size="10.5" fill="#6E6A61" font-family="ui-monospace,Menlo,monospace" text-anchor="start">owner confirms</text><text x="1096.0" y="477" font-size="10.5" fill="#0E9C5A" font-family="ui-monospace,Menlo,monospace" text-anchor="start">→ record_sale</text>
<line x1="1159" y1="340" x2="1159" y2="232" stroke="#7C5CFF" stroke-width="1.9" marker-end="url(#a7C5CFF)" marker-start="url(#a7C5CFF)"/>
<line x1="1159" y1="640" x2="1159" y2="862" stroke="#0E9C5A" stroke-width="1.9" marker-end="url(#a0E9C5A)" marker-start="url(#a0E9C5A)"/>
<g filter="url(#sh)"><rect x="1246.0" y="340" width="150" height="300" rx="14" fill="#fff" stroke="#E7E1D3"/></g><rect x="1246.0" y="340" width="150" height="26" rx="14" fill="#7C5CFF"/><rect x="1246.0" y="353" width="150" height="13" fill="#7C5CFF"/><text x="1321.0" y="358" font-size="12" fill="#fff" font-family="system-ui,-apple-system,Segoe UI,Roboto,sans-serif" text-anchor="middle">Voice</text><text x="1258.0" y="381" font-size="9.5" fill="#7C5CFF" font-family="ui-monospace,Menlo,monospace" text-anchor="start">POST /voice</text><text x="1258.0" y="397" font-size="10.5" fill="#6E6A61" font-family="ui-monospace,Menlo,monospace" text-anchor="start">/transcribe:</text><text x="1258.0" y="413" font-size="10.5" fill="#7C5CFF" font-family="ui-monospace,Menlo,monospace" text-anchor="start">qwen3-asr-flash</text><text x="1258.0" y="429" font-size="10.5" fill="#6E6A61" font-family="ui-monospace,Menlo,monospace" text-anchor="start">/speak:</text><text x="1258.0" y="445" font-size="10.5" fill="#7C5CFF" font-family="ui-monospace,Menlo,monospace" text-anchor="start">qwen3-tts-flash</text><text x="1258.0" y="461" font-size="10.5" fill="#6E6A61" font-family="ui-monospace,Menlo,monospace" text-anchor="start">transcript →</text><text x="1258.0" y="477" font-size="10.5" fill="#211F1B" font-family="ui-monospace,Menlo,monospace" text-anchor="start">chat</text>
<line x1="1321" y1="340" x2="1321" y2="232" stroke="#7C5CFF" stroke-width="1.9" marker-end="url(#a7C5CFF)" marker-start="url(#a7C5CFF)"/>
<g filter="url(#sh)"><rect x="1408.0" y="340" width="150" height="300" rx="14" fill="#fff" stroke="#E7E1D3"/></g><rect x="1408.0" y="340" width="150" height="26" rx="14" fill="#7C5CFF"/><rect x="1408.0" y="353" width="150" height="13" fill="#7C5CFF"/><text x="1483.0" y="358" font-size="12" fill="#fff" font-family="system-ui,-apple-system,Segoe UI,Roboto,sans-serif" text-anchor="middle">Analytics</text><text x="1420.0" y="381" font-size="9.5" fill="#7C5CFF" font-family="ui-monospace,Menlo,monospace" text-anchor="start">/pnl · /dashboard</text><text x="1420.0" y="397" font-size="10.5" fill="#6E6A61" font-family="ui-monospace,Menlo,monospace" text-anchor="start">P&amp;L: aggregate</text><text x="1420.0" y="413" font-size="10.5" fill="#6E6A61" font-family="ui-monospace,Menlo,monospace" text-anchor="start">revenue·COGS·exp</text><text x="1420.0" y="429" font-size="10.5" fill="#7C5CFF" font-family="ui-monospace,Menlo,monospace" text-anchor="start">→ qwen3.7-max</text><text x="1420.0" y="445" font-size="10.5" fill="#211F1B" font-family="ui-monospace,Menlo,monospace" text-anchor="start">Health: 70 +15</text><text x="1420.0" y="461" font-size="10.5" fill="#EB4A26" font-family="ui-monospace,Menlo,monospace" text-anchor="start">−10·overdue</text><text x="1420.0" y="477" font-size="10.5" fill="#EB4A26" font-family="ui-monospace,Menlo,monospace" text-anchor="start">−5·lowstock</text>
<line x1="1483" y1="340" x2="1483" y2="232" stroke="#7C5CFF" stroke-width="1.9" marker-end="url(#a7C5CFF)" marker-start="url(#a7C5CFF)"/>
<line x1="1483" y1="640" x2="1483" y2="862" stroke="#0E9C5A" stroke-width="1.9" marker-end="url(#a0E9C5A)" marker-start="url(#a0E9C5A)"/>
<g filter="url(#sh)"><rect x="1570.0" y="340" width="150" height="300" rx="14" fill="#fff" stroke="#E7E1D3"/></g><rect x="1570.0" y="340" width="150" height="26" rx="14" fill="#C67A12"/><rect x="1570.0" y="353" width="150" height="13" fill="#C67A12"/><text x="1645.0" y="358" font-size="12" fill="#fff" font-family="system-ui,-apple-system,Segoe UI,Roboto,sans-serif" text-anchor="middle">Opportunity Scout</text><text x="1582.0" y="381" font-size="9.5" fill="#C67A12" font-family="ui-monospace,Menlo,monospace" text-anchor="start">/opportunities</text><text x="1582.0" y="397" font-size="10.5" fill="#6E6A61" font-family="ui-monospace,Menlo,monospace" text-anchor="start">shop.location →</text><text x="1582.0" y="413" font-size="10.5" fill="#0E9C5A" font-family="ui-monospace,Menlo,monospace" text-anchor="start">cacheGet(key)</text><text x="1582.0" y="429" font-size="10.5" fill="#7C5CFF" font-family="ui-monospace,Menlo,monospace" text-anchor="start">miss → flash +</text><text x="1582.0" y="445" font-size="10.5" fill="#C67A12" font-family="ui-monospace,Menlo,monospace" text-anchor="start">forced web search</text><text x="1582.0" y="461" font-size="10.5" fill="#211F1B" font-family="ui-monospace,Menlo,monospace" text-anchor="start">JSON + sourceUrl</text><text x="1582.0" y="477" font-size="10.5" fill="#0E9C5A" font-family="ui-monospace,Menlo,monospace" text-anchor="start">cacheSet 10min</text>
<line x1="1645" y1="340" x2="1645" y2="232" stroke="#7C5CFF" stroke-width="1.9" marker-end="url(#a7C5CFF)" marker-start="url(#a7C5CFF)"/>
<line x1="1645" y1="640" x2="1645" y2="862" stroke="#0E9C5A" stroke-width="1.9" marker-end="url(#a0E9C5A)" marker-start="url(#a0E9C5A)"/>
<line x1="1246" y1="594" x2="915" y2="594" stroke="#9A958A" stroke-width="1.9" marker-end="url(#a9A958A)"/><text x="1080" y="588" font-size="9" fill="#9A958A" font-family="ui-monospace,Menlo,monospace" text-anchor="middle">transcript → chat</text>
</svg>